<?xml version="1.0" encoding="UTF-8"?>
<svg version="1.1" xmlns="http://www.w3.org/2000/svg" width="1204" height="467">
<path d="M0 0 C1 1 1 1 1.0625 4.0625 C1.041875 5.031875 1.02125 6.00125 1 7 C1.99 7 2.98 7 4 7 C4 8.98 4 10.96 4 13 C4.99 13.33 5.98 13.66 7 14 C7 16.64 7 19.28 7 22 C7.99 22 8.98 22 10 22 C10 24.31 10 26.62 10 29 C10.99 29 11.98 29 13 29 C13 30.98 13 32.96 13 35 C13.99 35 14.98 35 16 35 C18.64705592 41.05041352 21.11106033 47.12401872 23.0625 53.4375 C23.72128811 56.14661184 23.72128811 56.14661184 26 57 C26.33333333 58.66666667 26.66666667 60.33333333 27 62 C27.66 62.33 28.32 62.66 29 63 C29.33333333 65 29.66666667 67 30 69 C30.66 69.33 31.32 69.66 32 70 C32 72.31 32 74.62 32 77 C32.99 77.33 33.98 77.66 35 78 C35 79.98 35 81.96 35 84 C35.99 84 36.98 84 38 84 C38.33 85.98 38.66 87.96 39 90 C39.66 90 40.32 90 41 90 C42.52733758 93.95719283 43.99744823 97.83066036 45.0625 101.9375 C45.371875 102.948125 45.68125 103.95875 46 105 C46.66 105.33 47.32 105.66 48 106 C48 107.98 48 109.96 48 112 C48.99 112 49.98 112 51 112 C51 113.98 51 115.96 51 118 C51.99 118 52.98 118 54 118 C54.185625 119.7015625 54.185625 119.7015625 54.375 121.4375 C54.58125 122.613125 54.7875 123.78875 55 125 C55.66 125.33 56.32 125.66 57 126 C57 128.64 57 131.28 57 134 C57.99 134 58.98 134 60 134 C60.33 135.98 60.66 137.96 61 140 C61.66 140 62.32 140 63 140 C63.474375 141.134375 63.94875 142.26875 64.4375 143.4375 C65.63622083 146.75740166 65.63622083 146.75740166 67 148 C67.2165625 149.7325 67.2165625 149.7325 67.4375 151.5 C67.623125 152.655 67.80875 153.81 68 155 C68.66 155.33 69.32 155.66 70 156 C70 157.98 70 159.96 70 162 C70.99 162 71.98 162 73 162 C73 163.98 73 165.96 73 168 C73.99 168 74.98 168 76 168 C76.12375 168.969375 76.2475 169.93875 76.375 170.9375 C76.58125 171.948125 76.7875 172.95875 77 174 C77.66 174.33 78.32 174.66 79 175 C79 177.97 79 180.94 79 184 C79.99 184 80.98 184 82 184 C82 185.98 82 187.96 82 190 C82.99 190 83.98 190 85 190 C85.474375 191.134375 85.94875 192.26875 86.4375 193.4375 C87.63622083 196.75740166 87.63622083 196.75740166 89 198 C89.04063832 199.66617115 89.042721 201.33388095 89 203 C89.99 203.33 90.98 203.66 92 204 C92 206.64 92 209.28 92 212 C92.99 212 93.98 212 95 212 C95 214.64 95 217.28 95 220 C94.34 220 93.68 220 93 220 C93 220.66 93 221.32 93 222 C67.74009174 222.04666305 42.48018991 222.08196085 17.22024727 222.10362434 C5.49235725 222.11394918 -6.23550604 222.12803251 -17.96337891 222.15087891 C-28.18206268 222.1707759 -38.4007271 222.18370764 -48.61942971 222.18817699 C-54.03315445 222.19079064 -59.44682381 222.19695879 -64.86053085 222.21146011 C-69.9510095 222.22498578 -75.04140969 222.22923286 -80.1319046 222.22621536 C-82.00486044 222.22676778 -83.87781877 222.23077497 -85.75075912 222.23841095 C-88.29877095 222.24829384 -90.84648262 222.24599345 -93.39450073 222.24050903 C-94.14351902 222.24633472 -94.89253731 222.2521604 -95.66425312 222.25816262 C-100.77175758 222.22824242 -100.77175758 222.22824242 -103 220 C-103.33333333 214.66666667 -103.33333333 214.66666667 -102 212 C-101.34 212 -100.68 212 -100 212 C-100 210.02 -100 208.04 -100 206 C-99.01 206 -98.02 206 -97 206 C-97.12375 204.824375 -97.12375 204.824375 -97.25 203.625 C-96.90508489 198.62373094 -95.01353919 194.5484412 -93 190 C-92.34 190 -91.68 190 -91 190 C-91 188.35 -91 186.7 -91 185 C-90.01 184.67 -89.02 184.34 -88 184 C-88 182.02 -88 180.04 -88 178 C-87.34 177.67 -86.68 177.34 -86 177 C-85.31060191 174.67328146 -84.64533078 172.33932406 -84 170 C-83.34 169.01 -82.68 168.02 -82 167 C-81.61500109 165.34450469 -81.27206865 163.6777567 -81 162 C-80.01 162 -79.02 162 -78 162 C-78 160.02 -78 158.04 -78 156 C-77.01 156 -76.02 156 -75 156 C-75 153.69 -75 151.38 -75 149 C-74.01 149 -73.02 149 -72 149 C-72 146.69 -72 144.38 -72 142 C-71.34 142 -70.68 142 -70 142 C-69.505 138.04 -69.505 138.04 -69 134 C-68.01 134 -67.02 134 -66 134 C-66.04125 133.21625 -66.0825 132.4325 -66.125 131.625 C-66 129 -66 129 -64 127 C-63.28591666 125.01643517 -62.61382258 123.01684563 -62 121 C-61.34 121 -60.68 121 -60 121 C-59.855625 119.88625 -59.71125 118.7725 -59.5625 117.625 C-59 114 -59 114 -58 112 C-57.34 112 -56.68 112 -56 112 C-56 110.02 -56 108.04 -56 106 C-55.34 105.67 -54.68 105.34 -54 105 C-53.27306096 103.02111039 -52.60183749 101.02045442 -52 99 C-51.34 99 -50.68 99 -50 99 C-50 97.02 -50 95.04 -50 93 C-49.01 93 -48.02 93 -47 93 C-47.04125 91.88625 -47.0825 90.7725 -47.125 89.625 C-47 86 -47 86 -45 84 C-44.35232207 81.42938689 -44.35232207 81.42938689 -44 79 C-43.34 79 -42.68 79 -42 79 C-41.34 76.36 -40.68 73.72 -40 71 C-39.34 71 -38.68 71 -38 71 C-38 69.35 -38 67.7 -38 66 C-37.01 65.67 -36.02 65.34 -35 65 C-34.67 62.36 -34.34 59.72 -34 57 C-33.01 57 -32.02 57 -31 57 C-31 55.02 -31 53.04 -31 51 C-30.34 50.67 -29.68 50.34 -29 50 C-28.34227572 46.97065509 -28.34227572 46.97065509 -28 44 C-27.01 44 -26.02 44 -25 44 C-25 42.02 -25 40.04 -25 38 C-24.01 38 -23.02 38 -22 38 C-22 35.36 -22 32.72 -22 30 C-21.01 29.67 -20.02 29.34 -19 29 C-19 27.02 -19 25.04 -19 23 C-18.01 22.67 -17.02 22.34 -16 22 C-16 20.02 -16 18.04 -16 16 C-15.01 16 -14.02 16 -13 16 C-13 14.02 -13 12.04 -13 10 C-11.68 10 -10.36 10 -9 10 C-9.061875 8.72125 -9.12375 7.4425 -9.1875 6.125 C-9.29296875 3.9453125 -9.29296875 3.9453125 -9 2 C-5.55892734 -0.29404844 -4.03160191 -0.26293056 0 0 Z M-5 97 C-5 98.98 -5 100.96 -5 103 C-5.99 103 -6.98 103 -8 103 C-8.33 104.65 -8.66 106.3 -9 108 C-9.99 108.33 -10.98 108.66 -12 109 C-12.04898438 109.63808594 -12.09796875 110.27617187 -12.1484375 110.93359375 C-12.22320313 111.75988281 -12.29796875 112.58617187 -12.375 113.4375 C-12.44460938 114.26121094 -12.51421875 115.08492187 -12.5859375 115.93359375 C-12.72257813 116.61550781 -12.85921875 117.29742187 -13 118 C-13.66 118.33 -14.32 118.66 -15 119 C-15 120.98 -15 122.96 -15 125 C-15.99 125 -16.98 125 -18 125 C-18 126.98 -18 128.96 -18 131 C-18.99 131 -19.98 131 -21 131 C-21 133.31 -21 135.62 -21 138 C-21.99 138 -22.98 138 -24 138 C-24.12375 139.299375 -24.2475 140.59875 -24.375 141.9375 C-24.5859375 144.15234375 -24.5859375 144.15234375 -25 146 C-25.99 146.495 -25.99 146.495 -27 147 C-27 148.98 -27 150.96 -27 153 C-27.99 153 -28.98 153 -30 153 C-30 154.98 -30 156.96 -30 159 C-31.98 159.495 -31.98 159.495 -34 160 C-34.12375 161.299375 -34.2475 162.59875 -34.375 163.9375 C-34.5859375 166.15234375 -34.5859375 166.15234375 -35 168 C-35.99 168.495 -35.99 168.495 -37 169 C-37 170.98 -37 172.96 -37 175 C-37.99 175 -38.98 175 -40 175 C-40 176.98 -40 178.96 -40 181 C-15.58 181 8.84 181 34 181 C34 180.01 34 179.02 34 178 C33.01 178 32.02 178 31 178 C31 176.02 31 174.04 31 172 C30.01 172 29.02 172 28 172 C28 170.02 28 168.04 28 166 C27.34 165.67 26.68 165.34 26 165 C25.375 161.9375 25.375 161.9375 25 159 C24.01 159 23.02 159 22 159 C22 156.03 22 153.06 22 150 C21.01 150 20.02 150 19 150 C19 148.02 19 146.04 19 144 C18.01 144 17.02 144 16 144 C16 142.02 16 140.04 16 138 C15.01 137.505 15.01 137.505 14 137 C13.375 133.9375 13.375 133.9375 13 131 C12.01 131 11.02 131 10 131 C9.505 126.545 9.505 126.545 9 122 C8.01 122 7.02 122 6 122 C6 120.02 6 118.04 6 116 C5.34 115.67 4.68 115.34 4 115 C3.375 111.9375 3.375 111.9375 3 109 C2.01 109 1.02 109 0 109 C0 107.02 0 105.04 0 103 C-0.66 102.67 -1.32 102.34 -2 102 C-2.625 99.4375 -2.625 99.4375 -3 97 C-3.66 97 -4.32 97 -5 97 Z " fill="#040404" transform="translate(890,76)"/>
<path d="M0 0 C6.08723655 -0.02467081 12.17444417 -0.04284604 18.26171875 -0.05493164 C20.33366401 -0.05996852 22.4056057 -0.06679825 24.47753906 -0.07543945 C27.45118082 -0.08753321 30.42477569 -0.09323467 33.3984375 -0.09765625 C34.32868744 -0.10281754 35.25893738 -0.10797882 36.21737671 -0.11329651 C37.07811798 -0.11337204 37.93885925 -0.11344757 38.82568359 -0.11352539 C39.58513275 -0.115746 40.34458191 -0.11796661 41.12704468 -0.12025452 C43 0 43 0 45 1 C45 1.66 45 2.32 45 3 C46.65 3 48.3 3 50 3 C50.495 4.485 50.495 4.485 51 6 C52.65 6 54.3 6 56 6 C56.495 7.98 56.495 7.98 57 10 C57.99 10 58.98 10 60 10 C62.1875 11.875 62.1875 11.875 64 14 C64 14.66 64 15.32 64 16 C65.485 16.495 65.485 16.495 67 17 C67 17.66 67 18.32 67 19 C67.66 19 68.32 19 69 19 C73.72483403 25.00317109 75.75581643 30.43030936 76 38 C76.66 38 77.32 38 78 38 C78 72.98 78 107.96 78 144 C77.34 144 76.68 144 76 144 C75.67 146.97 75.34 149.94 75 153 C74.34 153 73.68 153 73 153 C72.505 155.97 72.505 155.97 72 159 C71.34 159 70.68 159 70 159 C69.71125 159.969375 69.4225 160.93875 69.125 161.9375 C68 165 68 165 66 166 C65.67 166.99 65.34 167.98 65 169 C64.01 169 63.02 169 62 169 C62 169.99 62 170.98 62 172 C61.01 172 60.02 172 59 172 C58.67 172.99 58.34 173.98 58 175 C56.67696283 175.3721042 55.34262065 175.70630173 54 176 C53.67 176.66 53.34 177.32 53 178 C51.33333333 178.33333333 49.66666667 178.66666667 48 179 C47.67 179.66 47.34 180.32 47 181 C44.93734178 181.3911938 42.90556733 181.50674519 40.8125 181.65625 C40.214375 181.7696875 39.61625 181.883125 39 182 C38.67 182.66 38.34 183.32 38 184 C27.77 184 17.54 184 7 184 C6.67 183.34 6.34 182.68 6 182 C3.87423218 181.53348793 3.87423218 181.53348793 1.4375 181.375 C0.61121094 181.30023438 -0.21507812 181.22546875 -1.06640625 181.1484375 C-2.02353516 181.07496094 -2.02353516 181.07496094 -3 181 C-3 180.01 -3 179.02 -3 178 C-4.98 178 -6.96 178 -9 178 C-9 177.01 -9 176.02 -9 175 C-10.98 175 -12.96 175 -15 175 C-14.99333817 175.91010834 -14.98667633 176.82021667 -14.97981262 177.75790405 C-14.91977748 186.32204886 -14.87406437 194.88612331 -14.84456348 203.45042992 C-14.82888706 207.85376311 -14.80761302 212.25692288 -14.77368164 216.66015625 C-14.74115825 220.90710791 -14.72316189 225.15389246 -14.71536827 229.40095901 C-14.70981208 231.02374529 -14.69896257 232.64652212 -14.68280983 234.26923752 C-14.66112822 236.5369541 -14.65802909 238.80397431 -14.65942383 241.07177734 C-14.65276199 242.36417328 -14.64610016 243.65656921 -14.63923645 244.98812866 C-14.75828842 245.9820462 -14.87734039 246.97596375 -15 248 C-18.31866288 250.21244192 -19.35722871 250.24755216 -23.21875 250.23046875 C-24.23324219 250.22853516 -25.24773438 250.22660156 -26.29296875 250.22460938 C-27.35128906 250.21236328 -28.40960938 250.20011719 -29.5 250.1875 C-30.55832031 250.18685547 -31.61664063 250.18621094 -32.70703125 250.18554688 C-40.57838255 250.14053915 -40.57838255 250.14053915 -44 249 C-44 167.82 -44 86.64 -44 3 C-39.05 3 -34.1 3 -29 3 C-27 5 -27 5 -26.875 7.625 C-26.91625 8.40875 -26.9575 9.1925 -27 10 C-26.01 10 -25.02 10 -24 10 C-24 11.98 -24 13.96 -24 16 C-22.35 16 -20.7 16 -19 16 C-19 15.01 -19 14.02 -19 13 C-17.68 13 -16.36 13 -15 13 C-15 12.01 -15 11.02 -15 10 C-14.01 10 -13.02 10 -12 10 C-12 8.68 -12 7.36 -12 6 C-10.02 6 -8.04 6 -6 6 C-6 5.01 -6 4.02 -6 3 C-4.02 3 -2.04 3 0 3 C0 2.01 0 1.02 0 0 Z M1 25 C0.67 25.66 0.34 26.32 0 27 C-2.5625 27.625 -2.5625 27.625 -5 28 C-5 28.99 -5 29.98 -5 31 C-5.99 31 -6.98 31 -8 31 C-8 31.99 -8 32.98 -8 34 C-8.99 34 -9.98 34 -11 34 C-11.33 35.65 -11.66 37.3 -12 39 C-12.99 39.33 -13.98 39.66 -15 40 C-15 73.99 -15 107.98 -15 143 C-14.01 143.33 -13.02 143.66 -12 144 C-11.67 144.66 -11.34 145.32 -11 146 C-10.34 146 -9.68 146 -9 146 C-8.62875 147.175625 -8.62875 147.175625 -8.25 148.375 C-6.8175952 151.38305008 -5.9690761 151.75490357 -3 153 C-2.67 153.66 -2.34 154.32 -2 155 C-0.13507598 155.38995102 -0.13507598 155.38995102 2 155.5 C4.1875 155.65625 4.1875 155.65625 6 156 C6.495 156.99 6.495 156.99 7 158 C15.25 158 23.5 158 32 158 C32 157.01 32 156.02 32 155 C33.98 155 35.96 155 38 155 C38 154.01 38 153.02 38 152 C38.99 152 39.98 152 41 152 C41 151.01 41 150.02 41 149 C41.99 149 42.98 149 44 149 C44 148.01 44 147.02 44 146 C44.99 146 45.98 146 47 146 C47 145.01 47 144.02 47 143 C47.99 143 48.98 143 50 143 C50 109.01 50 75.02 50 40 C49.01 40 48.02 40 47 40 C47 38.02 47 36.04 47 34 C46.01 34 45.02 34 44 34 C44 33.01 44 32.02 44 31 C43.01 31 42.02 31 41 31 C41 30.01 41 29.02 41 28 C39.02 28 37.04 28 35 28 C35 27.01 35 26.02 35 25 C23.78 25 12.56 25 1 25 Z " fill="#030303" transform="translate(73,95)"/>
<path d="M0 0 C8.58 0 17.16 0 26 0 C29.21143741 3.21143741 29.34575179 3.90324775 29.3732605 8.19631958 C29.36247467 8.89618988 29.35168884 9.59606018 29.34057617 10.31713867 C29.34123329 11.42970284 29.34123329 11.42970284 29.34190369 12.56474304 C29.33981383 15.01608616 29.31647419 17.46674513 29.29296875 19.91796875 C29.28737348 21.61761603 29.28310306 23.31726815 29.28010559 25.016922 C29.26865134 29.49031941 29.23917927 33.96342459 29.20599365 38.43670654 C29.17530521 43.00138394 29.16160288 47.56610855 29.14648438 52.13085938 C29.11431005 61.08736797 29.06310675 70.04365969 29 79 C29.66 79 30.32 79 31 79 C31.33 77.68 31.66 76.36 32 75 C33.65 75 35.3 75 37 75 C37.495 73.515 37.495 73.515 38 72 C39.98 72 41.96 72 44 72 C44 71.01 44 70.02 44 69 C58.52 69 73.04 69 88 69 C88 69.99 88 70.98 88 72 C90.31 72 92.62 72 95 72 C95 72.99 95 73.98 95 75 C96.98 75.33 98.96 75.66 101 76 C101 76.99 101 77.98 101 79 C101.99 79 102.98 79 104 79 C104 79.99 104 80.98 104 82 C104.99 82 105.98 82 107 82 C107 82.99 107 83.98 107 85 C107.99 85 108.98 85 110 85 C110 85.99 110 86.98 110 88 C110.60457031 88.0721875 111.20914063 88.144375 111.83203125 88.21875 C114.80529478 89.29019632 115.29202901 90.71786226 116.6875 93.5 C118.06395342 96.44885218 118.06395342 96.44885218 120 99 C120.2165625 100.7325 120.2165625 100.7325 120.4375 102.5 C120.623125 103.655 120.80875 104.81 121 106 C121.66 106.33 122.32 106.66 123 107 C123 141.65 123 176.3 123 212 C122.34 212.33 121.68 212.66 121 213 C120.53476937 214.89533342 120.53476937 214.89533342 120.375 217.0625 C120.189375 219.0115625 120.189375 219.0115625 120 221 C119.01 221.33 118.02 221.66 117 222 C117 223.65 117 225.3 117 227 C116.01 227.33 115.02 227.66 114 228 C113.67 229.65 113.34 231.3 113 233 C112.01 233.33 111.02 233.66 110 234 C109.26676204 236.01508358 109.26676204 236.01508358 109 238 C108.34 238 107.68 238 107 238 C106.67 238.99 106.34 239.98 106 241 C103.9375 241.6875 103.9375 241.6875 102 242 C102 242.66 102 243.32 102 244 C100.68 244 99.36 244 98 244 C98 244.99 98 245.98 98 247 C96.02 247 94.04 247 92 247 C91.67 247.99 91.34 248.98 91 250 C88.03 250 85.06 250 82 250 C82 250.99 82 251.98 82 253 C67.48 253 52.96 253 38 253 C37.67 252.34 37.34 251.68 37 251 C35.10466658 250.53476937 35.10466658 250.53476937 32.9375 250.375 C30.9884375 250.189375 30.9884375 250.189375 29 250 C28.67 249.01 28.34 248.02 28 247 C27.01 247 26.02 247 25 247 C25 246.01 25 245.02 25 244 C23.02 244 21.04 244 19 244 C19 243.01 19 242.02 19 241 C18.01 241 17.02 241 16 241 C16 240.01 16 239.02 16 238 C14.68 237.34 13.36 236.68 12 236 C12 235.34 12 234.68 12 234 C11.01 233.67 10.02 233.34 9 233 C9 231.35 9 229.7 9 228 C8.01 228 7.02 228 6 228 C6 226.02 6 224.04 6 222 C5.01 222 4.02 222 3 222 C3 219.03 3 216.06 3 213 C2.01 212.67 1.02 212.34 0 212 C0 142.04 0 72.08 0 0 Z M45 94 C44.67 94.66 44.34 95.32 44 96 C40.9375 96.625 40.9375 96.625 38 97 C38 97.99 38 98.98 38 100 C37.01 100 36.02 100 35 100 C35 100.99 35 101.98 35 103 C34.01 103 33.02 103 32 103 C32 104.98 32 106.96 32 109 C31.01 109 30.02 109 29 109 C29 142.99 29 176.98 29 212 C29.99 212 30.98 212 32 212 C32 212.99 32 213.98 32 215 C32.99 215 33.98 215 35 215 C35 215.99 35 216.98 35 218 C36.25 219.75 36.25 219.75 38 221 C38.99 221 39.98 221 41 221 C41 221.99 41 222.98 41 224 C41.95712891 224.07347656 41.95712891 224.07347656 42.93359375 224.1484375 C43.75988281 224.22320312 44.58617187 224.29796875 45.4375 224.375 C46.26121094 224.44460937 47.08492187 224.51421875 47.93359375 224.5859375 C48.61550781 224.72257813 49.29742188 224.85921875 50 225 C50.495 225.99 50.495 225.99 51 227 C58.92 227 66.84 227 75 227 C75.33 226.34 75.66 225.68 76 225 C77.66666667 224.66666667 79.33333333 224.33333333 81 224 C81.33 223.34 81.66 222.68 82 222 C82.99 221.67 83.98 221.34 85 221 C85 220.01 85 219.02 85 218 C85.99 218 86.98 218 88 218 C88 217.01 88 216.02 88 215 C88.99 215 89.98 215 91 215 C91 214.01 91 213.02 91 212 C91.99 212 92.98 212 94 212 C94 178.01 94 144.02 94 109 C93.01 109 92.02 109 91 109 C91 107.02 91 105.04 91 103 C90.01 103 89.02 103 88 103 C88 102.01 88 101.02 88 100 C86.68 100 85.36 100 84 100 C84 99.01 84 98.02 84 97 C82.02 97 80.04 97 78 97 C78 96.01 78 95.02 78 94 C67.11 94 56.22 94 45 94 Z " fill="#030303" transform="translate(550,26)"/>
<path d="M0 0 C14.85 0 29.7 0 45 0 C45 0.99 45 1.98 45 3 C46.98 3 48.96 3 51 3 C51.495 4.485 51.495 4.485 52 6 C52.99 6 53.98 6 55 6 C55.495 7.98 55.495 7.98 56 10 C57.65 10 59.3 10 61 10 C61 10.99 61 11.98 61 13 C61.99 13 62.98 13 64 13 C64 13.99 64 14.98 64 16 C64.99 16 65.98 16 67 16 C67 17.98 67 19.96 67 22 C68.98 22.495 68.98 22.495 71 23 C71 23.66 71 24.32 71 25 C71.66 25 72.32 25 73 25 C73.20496094 25.63808594 73.40992188 26.27617188 73.62109375 26.93359375 C73.89050781 27.75988281 74.15992188 28.58617188 74.4375 29.4375 C74.70433594 30.26121094 74.97117187 31.08492187 75.24609375 31.93359375 C75.82155494 33.96219588 75.82155494 33.96219588 77 35 C77.09568576 36.48016394 77.12188268 37.96488273 77.12025452 39.44813538 C77.12231651 40.88901772 77.12231651 40.88901772 77.12442017 42.35900879 C77.11902725 43.95259216 77.11902725 43.95259216 77.11352539 45.57836914 C77.11367142 46.69042221 77.11381744 47.80247528 77.1139679 48.94822693 C77.11326821 52.64388951 77.1054732 56.33950241 77.09765625 60.03515625 C77.09579227 62.58963493 77.09436827 65.14411397 77.09336853 67.69859314 C77.08993344 73.7476171 77.08204264 79.79661955 77.07201904 85.84563488 C77.06085683 92.73065154 77.05534718 99.61566904 77.05032361 106.50069249 C77.03986 120.6671383 77.02226123 134.83356817 77 149 C76.01 149.33 75.02 149.66 74 150 C74 151.98 74 153.96 74 156 C73.01 156 72.02 156 71 156 C70.505 158.97 70.505 158.97 70 162 C69.01 162 68.02 162 67 162 C67 163.32 67 164.64 67 166 C66.01 166 65.02 166 64 166 C64 166.99 64 167.98 64 169 C63.01 169 62.02 169 61 169 C61 169.99 61 170.98 61 172 C60.01 172 59.02 172 58 172 C58 172.99 58 173.98 58 175 C56.02 175 54.04 175 52 175 C52 175.99 52 176.98 52 178 C50.68 178 49.36 178 48 178 C48 178.99 48 179.98 48 181 C45.03 181 42.06 181 39 181 C39 181.99 39 182.98 39 184 C28.11 184 17.22 184 6 184 C5.67 183.01 5.34 182.02 5 181 C2.03 181 -0.94 181 -4 181 C-4 180.01 -4 179.02 -4 178 C-5.98 178 -7.96 178 -10 178 C-10 177.01 -10 176.02 -10 175 C-10.99 175 -11.98 175 -13 175 C-13 174.34 -13 173.68 -13 173 C-13.99 173 -14.98 173 -16 173 C-15.99555878 173.93516449 -15.99111755 174.87032898 -15.98654175 175.83383179 C-15.94605326 184.63344775 -15.91604337 193.4330449 -15.89637566 202.23273277 C-15.88592449 206.7570826 -15.8717411 211.28135741 -15.84912109 215.80566406 C-15.82744007 220.16931524 -15.81544142 224.53289413 -15.81024551 228.896595 C-15.80654121 230.56402347 -15.79930793 232.23144785 -15.78853989 233.89884567 C-15.7740878 236.22871295 -15.77201939 238.55827894 -15.77294922 240.88818359 C-15.76575867 241.58229843 -15.75856812 242.27641327 -15.75115967 242.99156189 C-15.77189568 247.77189568 -15.77189568 247.77189568 -18 250 C-20.27490234 250.25878906 -20.27490234 250.25878906 -23.0859375 250.265625 C-24.09914063 250.26820313 -25.11234375 250.27078125 -26.15625 250.2734375 C-27.2184375 250.26570312 -28.280625 250.25796875 -29.375 250.25 C-30.42945313 250.25773438 -31.48390625 250.26546875 -32.5703125 250.2734375 C-33.58609375 250.27085937 -34.601875 250.26828125 -35.6484375 250.265625 C-36.57833496 250.26336914 -37.50823242 250.26111328 -38.46630859 250.25878906 C-41.11902401 249.98784299 -42.67537856 249.24183714 -45 248 C-45.02278985 216.93286518 -45.0404979 185.86573257 -45.05106533 154.79859138 C-45.05231611 151.13468916 -45.05361042 147.47078696 -45.05493164 143.80688477 C-45.05519395 143.07743707 -45.05545626 142.34798938 -45.05572652 141.59643721 C-45.06008333 129.76983332 -45.06797093 117.94323426 -45.0771528 106.11663324 C-45.08648904 93.99046565 -45.09205555 81.8643006 -45.09408849 69.73812956 C-45.09546378 62.24962338 -45.09981469 54.76113087 -45.10791647 47.2726289 C-45.11380427 41.54010375 -45.11445904 35.80758746 -45.11310768 30.07505989 C-45.1133842 27.71630773 -45.11539184 25.35755509 -45.11920547 22.998806 C-45.12413606 19.79366382 -45.12300065 16.5885815 -45.12025452 13.38343811 C-45.12316736 12.43695957 -45.1260802 11.49048102 -45.12908131 10.51532131 C-45.11412121 4.11412121 -45.11412121 4.11412121 -44 3 C-41.46950598 2.92686433 -38.96695163 2.90752473 -36.4375 2.9375 C-35.72658203 2.94201172 -35.01566406 2.94652344 -34.28320312 2.95117188 C-32.52209987 2.96299136 -30.76103964 2.98092737 -29 3 C-25 9.625 -25 9.625 -25 13 C-24.01 13 -23.02 13 -22 13 C-22 13.99 -22 14.98 -22 16 C-21.34 16 -20.68 16 -20 16 C-20 15.01 -20 14.02 -20 13 C-19.01 13 -18.02 13 -17 13 C-17 12.01 -17 11.02 -17 10 C-15.68 10 -14.36 10 -13 10 C-12.67 8.68 -12.34 7.36 -12 6 C-10.35 6 -8.7 6 -7 6 C-7 5.01 -7 4.02 -7 3 C-5.02 3 -3.04 3 -1 3 C-0.67 2.01 -0.34 1.02 0 0 Z M1 25 C0.67 25.66 0.34 26.32 0 27 C-2.5625 27.625 -2.5625 27.625 -5 28 C-5 28.99 -5 29.98 -5 31 C-5.99 31 -6.98 31 -8 31 C-8 31.99 -8 32.98 -8 34 C-8.99 34.33 -9.98 34.66 -11 35 C-11 35.66 -11 36.32 -11 37 C-11.66 37 -12.32 37 -13 37 C-13 38.98 -13 40.96 -13 43 C-13.66 43 -14.32 43 -15 43 C-16.3298361 46.98950829 -16.13074673 50.81089056 -16.11352539 54.96948242 C-16.11367142 55.88675613 -16.11381744 56.80402985 -16.1139679 57.74909973 C-16.11327057 60.78458003 -16.10548656 63.81999916 -16.09765625 66.85546875 C-16.09579143 68.95868394 -16.09436783 71.06189957 -16.09336853 73.16511536 C-16.08954839 78.70369666 -16.07972237 84.2422518 -16.06866455 89.78082275 C-16.05843964 95.43135219 -16.05386859 101.08188585 -16.04882812 106.73242188 C-16.03809968 117.82162609 -16.02102926 128.91081087 -16 140 C-15.34 140 -14.68 140 -14 140 C-13.67 141.98 -13.34 143.96 -13 146 C-12.01 146 -11.02 146 -10 146 C-10 146.99 -10 147.98 -10 149 C-9.34 149 -8.68 149 -8 149 C-7.67 149.99 -7.34 150.98 -7 152 C-6.34 152 -5.68 152 -5 152 C-4.67 152.99 -4.34 153.98 -4 155 C-2.0509375 155.185625 -2.0509375 155.185625 -0.0625 155.375 C2.15234375 155.5859375 2.15234375 155.5859375 4 156 C4.495 156.99 4.495 156.99 5 158 C13.91 158 22.82 158 32 158 C32 157.34 32 156.68 32 156 C32.9075 155.9175 33.815 155.835 34.75 155.75 C38.42008088 154.90305826 39.69866328 153.92092737 42 151 C42 150.34 42 149.68 42 149 C42.99 149 43.98 149 45 149 C47.41685712 144.77050005 48.34833144 141.87664009 48 137 C48.99 137 49.98 137 51 137 C51 106.97 51 76.94 51 46 C50.34 46 49.68 46 49 46 C48.505 41.545 48.505 41.545 48 37 C47.01 37 46.02 37 45 37 C45 36.01 45 35.02 45 34 C44.01 34 43.02 34 42 34 C42 33.01 42 32.02 42 31 C39.0936485 28.19744677 38.21174952 28 34 28 C33.505 26.515 33.505 26.515 33 25 C22.44 25 11.88 25 1 25 Z " fill="#030303" transform="translate(452,95)"/>
<path d="M0 0 C17.49 0 34.98 0 53 0 C53.495 1.485 53.495 1.485 54 3 C55.98 3 57.96 3 60 3 C60 3.99 60 4.98 60 6 C62.97 6.495 62.97 6.495 66 7 C66 7.99 66 8.98 66 10 C66.99 10 67.98 10 69 10 C69 10.99 69 11.98 69 13 C70.32 13.33 71.64 13.66 73 14 C73 14.66 73 15.32 73 16 C73.99 16 74.98 16 76 16 C76 16.99 76 17.98 76 19 C76.99 19 77.98 19 79 19 C79 20.98 79 22.96 79 25 C79.99 25 80.98 25 82 25 C82.495 26.485 82.495 26.485 83 28 C83.66 28.33 84.32 28.66 85 29 C85 31.97 85 34.94 85 38 C85.99 38 86.98 38 88 38 C88 57.14 88 76.28 88 96 C84.68248407 97.65875797 80.97402946 97.12889303 77.32763672 97.11352539 C76.43001617 97.11367142 75.53239563 97.11381744 74.60757446 97.1139679 C71.63158782 97.11326953 68.65566325 97.10548067 65.6796875 97.09765625 C63.61988357 97.0957918 61.56007919 97.09436802 59.50027466 97.09336853 C54.07182598 97.08954548 48.64340395 97.07971699 43.21496582 97.06866455 C37.67847046 97.05844588 32.14197081 97.05386993 26.60546875 97.04882812 C15.73696744 97.03809455 4.86848594 97.02102065 -6 97 C-6 97.95890137 -6 98.91780273 -6 99.90576172 C-6 114.27050781 -6 128.63525391 -6 143 C-5.01 143 -4.02 143 -3 143 C-3 143.99 -3 144.98 -3 146 C-2.01 146 -1.02 146 0 146 C0 147.98 0 149.96 0 152 C1.98 152 3.96 152 6 152 C6.33 152.99 6.66 153.98 7 155 C8.670625 154.9690625 8.670625 154.9690625 10.375 154.9375 C14 155 14 155 16 156 C16 156.66 16 157.32 16 158 C23.92 158 31.84 158 40 158 C40.33 157.01 40.66 156.02 41 155 C42.98 155 44.96 155 47 155 C47 154.01 47 153.02 47 152 C47.99 152 48.98 152 50 152 C50 151.01 50 150.02 50 149 C50.99 149 51.98 149 53 149 C53 148.01 53 147.02 53 146 C53.99 146 54.98 146 56 146 C56 144.02 56 142.04 56 140 C56.99 140 57.98 140 59 140 C59 132.74 59 125.48 59 118 C67.58 118 76.16 118 85 118 C85 118.99 85 119.98 85 121 C85.99 121 86.98 121 88 121 C88 128.26 88 135.52 88 143 C87.34 143.33 86.68 143.66 86 144 C85.53476937 145.89533342 85.53476937 145.89533342 85.375 148.0625 C85.189375 150.0115625 85.189375 150.0115625 85 152 C84.01 152.33 83.02 152.66 82 153 C82 154.65 82 156.3 82 158 C81.01 158.33 80.02 158.66 79 159 C78.87044922 160.10408203 78.87044922 160.10408203 78.73828125 161.23046875 C77.85533205 164.54269616 76.61350794 165.9224996 74.1875 168.3125 C73.15689453 169.35857422 73.15689453 169.35857422 72.10546875 170.42578125 C70 172 70 172 66 172 C66 172.99 66 173.98 66 175 C65.01 175 64.02 175 63 175 C62.67 175.99 62.34 176.98 62 178 C60.35 178 58.7 178 57 178 C56.67 178.99 56.34 179.98 56 181 C53.03 181 50.06 181 47 181 C47 181.99 47 182.98 47 184 C32.48 184 17.96 184 3 184 C3 183.01 3 182.02 3 181 C0.03 181 -2.94 181 -6 181 C-6.33 180.01 -6.66 179.02 -7 178 C-8.32 178 -9.64 178 -11 178 C-11 177.34 -11 176.68 -11 176 C-12.65 175.67 -14.3 175.34 -16 175 C-16 174.01 -16 173.02 -16 172 C-16.99 172 -17.98 172 -19 172 C-19 171.01 -19 170.02 -19 169 C-19.99 169 -20.98 169 -22 169 C-22.33 168.01 -22.66 167.02 -23 166 C-23.66 165.67 -24.32 165.34 -25 165 C-25.625 161.9375 -25.625 161.9375 -26 159 C-26.99 159 -27.98 159 -29 159 C-29 157.02 -29 155.04 -29 153 C-29.99 153 -30.98 153 -32 153 C-32.12375 151.88625 -32.2475 150.7725 -32.375 149.625 C-32.6465813 145.96896323 -32.6465813 145.96896323 -35 144 C-35.24609566 142.06722832 -35.24609566 142.06722832 -35.24050903 139.65939331 C-35.24325836 138.74791534 -35.24600769 137.83643738 -35.24884033 136.89733887 C-35.24164978 135.89464966 -35.23445923 134.89196045 -35.22705078 133.85888672 C-35.22734283 132.80520905 -35.22763489 131.75153137 -35.22793579 130.66592407 C-35.22653838 127.17042916 -35.21095776 123.67514534 -35.1953125 120.1796875 C-35.19158383 117.76116045 -35.18873617 115.34263189 -35.18673706 112.92410278 C-35.17908908 106.54868421 -35.15943059 100.1733563 -35.1373291 93.79797363 C-35.11689573 87.29631782 -35.10774072 80.7946474 -35.09765625 74.29296875 C-35.07618581 61.52860708 -35.04241856 48.76430835 -35 36 C-33.515 35.505 -33.515 35.505 -32 35 C-32.04125 34.05125 -32.0825 33.1025 -32.125 32.125 C-32 29 -32 29 -30 27 C-29.35232207 24.42938689 -29.35232207 24.42938689 -29 22 C-28.01 22 -27.02 22 -26 22 C-26 21.01 -26 20.02 -26 19 C-24.68 19 -23.36 19 -22 19 C-22 18.01 -22 17.02 -22 16 C-21.01 16 -20.02 16 -19 16 C-19 15.01 -19 14.02 -19 13 C-18.01 13 -17.02 13 -16 13 C-16 12.01 -16 11.02 -16 10 C-15.01 10 -14.02 10 -13 10 C-12.67 8.68 -12.34 7.36 -12 6 C-10.35 6 -8.7 6 -7 6 C-7 5.01 -7 4.02 -7 3 C-4.69 3 -2.38 3 0 3 C0 2.01 0 1.02 0 0 Z M10 25 C9.67 25.66 9.34 26.32 9 27 C6.4375 27.625 6.4375 27.625 4 28 C4 28.99 4 29.98 4 31 C2.68 31 1.36 31 0 31 C0 31.99 0 32.98 0 34 C-0.99 34 -1.98 34 -3 34 C-3 35.98 -3 37.96 -3 40 C-3.99 40 -4.98 40 -6 40 C-6.04898437 40.84304687 -6.09796875 41.68609375 -6.1484375 42.5546875 C-6.22320312 43.65039062 -6.29796875 44.74609375 -6.375 45.875 C-6.47941406 47.51082031 -6.47941406 47.51082031 -6.5859375 49.1796875 C-7 52 -7 52 -9 54 C-8.01 54 -7.02 54 -6 54 C-6 60.6 -6 67.2 -6 74 C15.45 74 36.9 74 59 74 C59 62.78 59 51.56 59 40 C58.01 40 57.02 40 56 40 C56 38.02 56 36.04 56 34 C55.01 34 54.02 34 53 34 C53 33.01 53 32.02 53 31 C52.01 31 51.02 31 50 31 C50 30.01 50 29.02 50 28 C49.030625 27.87625 48.06125 27.7525 47.0625 27.625 C46.051875 27.41875 45.04125 27.2125 44 27 C43.505 26.01 43.505 26.01 43 25 C32.11 25 21.22 25 10 25 Z " fill="#030303" transform="translate(301,95)"/>
<path d="M0 0 C15.18 0 30.36 0 46 0 C46 0.99 46 1.98 46 3 C47.98 3 49.96 3 52 3 C52 3.99 52 4.98 52 6 C53.65 6.33 55.3 6.66 57 7 C57.495 8.485 57.495 8.485 58 10 C59.32 10 60.64 10 62 10 C62 10.99 62 11.98 62 13 C62.99 13 63.98 13 65 13 C65 13.99 65 14.98 65 16 C65.99 16 66.98 16 68 16 C68 17.98 68 19.96 68 22 C68.99 22 69.98 22 71 22 C71 22.99 71 23.98 71 25 C71.99 25 72.98 25 74 25 C74 27.31 74 29.62 74 32 C74.99 32 75.98 32 77 32 C78.5535726 36.6607178 78.3946403 41.45032468 78.62109375 46.3359375 C78.80764156 49.8664809 78.80764156 49.8664809 80.00822926 52.40795708 C81.07170964 55.18741676 81.24907971 57.17408909 81.24723816 60.13674927 C81.25143265 61.1489856 81.25562714 62.16122192 81.25994873 63.20413208 C81.25432922 64.30353119 81.24870972 65.4029303 81.24291992 66.53564453 C81.24481827 67.70198425 81.24671661 68.86832397 81.24867249 70.07000732 C81.25237654 73.92434414 81.241682 77.77849244 81.23046875 81.6328125 C81.22927674 84.30891194 81.22877301 86.98500346 81.2290802 89.66110229 C81.22814462 95.26806991 81.21947373 100.8749833 81.20581055 106.48193359 C81.19007084 112.96500102 81.18481304 119.44800914 81.1855461 125.93109429 C81.18615629 132.17014458 81.18105262 138.40917557 81.17275429 144.64822006 C81.16956604 147.30285399 81.16759985 149.95748966 81.16686058 152.6121254 C81.16469962 156.31582893 81.15596102 160.01945711 81.14526367 163.72314453 C81.14571686 164.8265921 81.14617004 165.93003967 81.14663696 167.06692505 C81.14237198 168.07352173 81.13810699 169.08011841 81.13371277 170.11721802 C81.13203692 170.99287981 81.13036108 171.8685416 81.12863445 172.7707386 C81 175 81 175 80 178 C79.34 178 78.68 178 78 178 C77.67 178.99 77.34 179.98 77 181 C68.75 181 60.5 181 52 181 C52 135.46 52 89.92 52 43 C50.68 43 49.36 43 48 43 C48 41.02 48 39.04 48 37 C47.01 37 46.02 37 45 37 C45 36.01 45 35.02 45 34 C43.515 33.505 43.515 33.505 42 33 C42 32.34 42 31.68 42 31 C40.515 30.505 40.515 30.505 39 30 C39 29.34 39 28.68 39 28 C37.02 27.67 35.04 27.34 33 27 C33 26.34 33 25.68 33 25 C22.77 25 12.54 25 2 25 C1.505 26.485 1.505 26.485 1 28 C-0.65 28 -2.3 28 -4 28 C-4 28.99 -4 29.98 -4 31 C-4.99 31 -5.98 31 -7 31 C-7 31.99 -7 32.98 -7 34 C-7.99 34 -8.98 34 -10 34 C-10 34.99 -10 35.98 -10 37 C-10.99 37 -11.98 37 -13 37 C-13.33 39.97 -13.66 42.94 -14 46 C-14.66 46 -15.32 46 -16 46 C-15.99907821 46.67752728 -15.99815641 47.35505457 -15.99720669 48.05311298 C-15.97513657 64.52759044 -15.95858116 81.00206323 -15.94818783 97.47655201 C-15.94302829 105.44343916 -15.93599209 113.41031645 -15.92456055 121.37719727 C-15.91460328 128.31992639 -15.90814408 135.26264837 -15.90591151 142.20538443 C-15.90460618 145.88258128 -15.90153151 149.5597577 -15.89426994 153.23694801 C-15.88623539 157.33872006 -15.88600954 161.44045644 -15.88647461 165.54223633 C-15.88287933 166.76574799 -15.87928406 167.98925964 -15.87557983 169.24984741 C-15.8769545 170.36463974 -15.87832916 171.47943207 -15.87974548 172.62800598 C-15.87882369 173.59865399 -15.8779019 174.56930201 -15.87695217 175.56936359 C-16 178 -16 178 -17 181 C-24.92 181 -32.84 181 -41 181 C-41.33 179.35 -41.66 177.7 -42 176 C-42.66 176 -43.32 176 -44 176 C-44 142.01 -44 108.02 -44 73 C-43.34 73 -42.68 73 -42 73 C-41.67 49.9 -41.34 26.8 -41 3 C-37.04 3 -33.08 3 -29 3 C-29 3.99 -29 4.98 -29 6 C-28.01 6 -27.02 6 -26 6 C-25.87625 6.969375 -25.7525 7.93875 -25.625 8.9375 C-25.41875 9.948125 -25.2125 10.95875 -25 12 C-24.34 12.33 -23.68 12.66 -23 13 C-23 13.99 -23 14.98 -23 16 C-22.01 16 -21.02 16 -20 16 C-20 15.01 -20 14.02 -20 13 C-19.01 13 -18.02 13 -17 13 C-17 12.01 -17 11.02 -17 10 C-15.68 10 -14.36 10 -13 10 C-13 9.01 -13 8.02 -13 7 C-11.35 6.67 -9.7 6.34 -8 6 C-8 5.34 -8 4.68 -8 4 C-5.29120665 2.64560332 -2.99066732 2.93498549 0 3 C0 2.01 0 1.02 0 0 Z " fill="#030303" transform="translate(1094,95)"/>
<path d="M0 0 C10.56 0 21.12 0 32 0 C32 9.24 32 18.48 32 28 C21.77 28 11.54 28 1 28 C0.505 29.485 0.505 29.485 0 31 C-1.65 31 -3.3 31 -5 31 C-5.33 31.99 -5.66 32.98 -6 34 C-6.99 34 -7.98 34 -9 34 C-9 34.99 -9 35.98 -9 37 C-9.99 37 -10.98 37 -12 37 C-12 37.99 -12 38.98 -12 40 C-12.99 40 -13.98 40 -15 40 C-15 42.97 -15 45.94 -15 49 C-15.99 49.495 -15.99 49.495 -17 50 C-17.33 93.23 -17.66 136.46 -18 181 C-26.25 181 -34.5 181 -43 181 C-44 180 -44 180 -44.12304783 177.11267757 C-44.12212604 175.8083405 -44.12120424 174.50400343 -44.12025452 173.16014099 C-44.12110894 172.4364978 -44.12196337 171.71285461 -44.12284368 170.96728283 C-44.12450062 168.52430654 -44.11897365 166.08139778 -44.11352539 163.63842773 C-44.11324354 161.89446006 -44.11340121 160.15049226 -44.1139679 158.40652466 C-44.11425595 153.65672505 -44.10835797 148.90695047 -44.10139394 144.15715671 C-44.09516169 139.19901578 -44.0945567 134.24087434 -44.09336853 129.2827301 C-44.09025483 119.88690172 -44.08204093 110.49108491 -44.07201904 101.09526163 C-44.06085909 90.40136851 -44.05534775 79.70747484 -44.05032361 69.01357734 C-44.03985834 47.00904509 -44.02225816 25.00452327 -44 3 C-39.71 3 -35.42 3 -31 3 C-31 3.99 -31 4.98 -31 6 C-29.68 6.33 -28.36 6.66 -27 7 C-26.87625 7.804375 -26.7525 8.60875 -26.625 9.4375 C-26.41875 10.283125 -26.2125 11.12875 -26 12 C-25.34 12.33 -24.68 12.66 -24 13 C-24 13.99 -24 14.98 -24 16 C-23.34 16 -22.68 16 -22 16 C-22 15.01 -22 14.02 -22 13 C-21.01 13 -20.02 13 -19 13 C-18.67 12.01 -18.34 11.02 -18 10 C-17.01 10 -16.02 10 -15 10 C-14.67 9.01 -14.34 8.02 -14 7 C-12.35 6.67 -10.7 6.34 -9 6 C-8.67 5.01 -8.34 4.02 -8 3 C-5.36 3 -2.72 3 0 3 C0 2.01 0 1.02 0 0 Z " fill="#030303" transform="translate(216,95)"/>
<path d="M0 0 C10.23 0 20.46 0 31 0 C31 9.24 31 18.48 31 28 C20.44 28 9.88 28 -1 28 C-1 28.99 -1 29.98 -1 31 C-2.65 31 -4.3 31 -6 31 C-6 31.99 -6 32.98 -6 34 C-6.99 34.33 -7.98 34.66 -9 35 C-9.495 35.99 -9.495 35.99 -10 37 C-10.66 37 -11.32 37 -12 37 C-12 37.99 -12 38.98 -12 40 C-12.99 40 -13.98 40 -15 40 C-14.95875 41.093125 -14.9175 42.18625 -14.875 43.3125 C-15 47 -15 47 -17 50 C-17.30892425 52.47419025 -17.30892425 52.47419025 -17.27174377 55.28933716 C-17.2814621 56.38585602 -17.29118042 57.48237488 -17.30119324 58.61212158 C-17.30178238 59.81536072 -17.30237152 61.01859985 -17.30297852 62.25830078 C-17.31141785 63.52509674 -17.31985718 64.7918927 -17.32855225 66.09707642 C-17.34683175 68.85208821 -17.35886959 71.6070321 -17.36609077 74.36209488 C-17.37756586 78.71452484 -17.40301566 83.06680417 -17.43040466 87.41915894 C-17.47205688 94.29916566 -17.50447292 101.17917958 -17.53287882 108.05925262 C-17.58387076 120.39077091 -17.64588902 132.72222695 -17.71821922 145.05363834 C-17.74319479 149.38449389 -17.76260189 153.71532936 -17.77760136 158.04623055 C-17.78533024 160.08827779 -17.7952557 162.13030017 -17.80615234 164.17233276 C-17.81936193 166.66784975 -17.82893331 169.16338945 -17.83433533 171.65893555 C-17.84123383 172.74981476 -17.84813232 173.84069397 -17.85523987 174.96463013 C-17.85909478 175.91847658 -17.8629497 176.87232304 -17.86692142 177.85507393 C-18 180 -18 180 -19 181 C-27.25 181 -35.5 181 -44 181 C-44 122.26 -44 63.52 -44 3 C-39.71 3 -35.42 3 -31 3 C-31 3.99 -31 4.98 -31 6 C-30.01 6.33 -29.02 6.66 -28 7 C-26 10 -26 10 -26 13 C-25.34 13 -24.68 13 -24 13 C-24 13.99 -24 14.98 -24 16 C-23.34 16 -22.68 16 -22 16 C-22 15.01 -22 14.02 -22 13 C-21.01 13 -20.02 13 -19 13 C-19 12.01 -19 11.02 -19 10 C-18.01 10 -17.02 10 -16 10 C-16 9.01 -16 8.02 -16 7 C-12.535 6.505 -12.535 6.505 -9 6 C-9 5.01 -9 4.02 -9 3 C-6.03 3 -3.06 3 0 3 C0 2.01 0 1.02 0 0 Z " fill="#030303" transform="translate(738,95)"/>
<path d="M0 0 C8.58 0 17.16 0 26 0 C26.02311649 23.06066139 26.04097794 46.12132 26.05181217 69.18199062 C26.05697567 79.88866507 26.06401937 90.5953322 26.07543945 101.30200195 C26.08538467 110.63036083 26.09185304 119.95871441 26.09408849 129.28707844 C26.09539588 134.22958949 26.09848348 139.17208539 26.10573006 144.1145916 C26.11248771 148.76101235 26.11461748 153.40741162 26.11310768 158.05383682 C26.11338412 159.76434127 26.11539075 161.47484639 26.11920547 163.1853466 C26.12413875 165.51030499 26.12299966 167.83518092 26.12025452 170.16014099 C26.12117631 171.46447806 26.1220981 172.76881514 26.12304783 174.11267757 C26 177 26 177 25 178 C16.75 178 8.5 178 0 178 C0 119.26 0 60.52 0 0 Z " fill="#040404" transform="translate(1006,98)"/>
<path d="M0 0 C0.68050415 -0.00095673 1.3610083 -0.00191345 2.06213379 -0.00289917 C3.50122164 -0.00357981 4.94031257 -0.00173357 6.37939453 0.00244141 C8.58503093 0.00779135 10.7904637 0.00249259 12.99609375 -0.00390625 C14.39322962 -0.00324545 15.79036536 -0.00196424 17.1875 0 C19.10079102 0.00169189 19.10079102 0.00169189 21.05273438 0.00341797 C24.09375 0.1328125 24.09375 0.1328125 26.09375 1.1328125 C26.09375 2.1228125 26.09375 3.1128125 26.09375 4.1328125 C27.08375 4.1328125 28.07375 4.1328125 29.09375 4.1328125 C29.09375 5.1228125 29.09375 6.1128125 29.09375 7.1328125 C30.08375 7.1328125 31.07375 7.1328125 32.09375 7.1328125 C32.09375 13.4028125 32.09375 19.6728125 32.09375 26.1328125 C31.10375 26.1328125 30.11375 26.1328125 29.09375 26.1328125 C29.09375 28.4428125 29.09375 30.7528125 29.09375 33.1328125 C27.11375 33.1328125 25.13375 33.1328125 23.09375 33.1328125 C23.09375 34.7828125 23.09375 36.4328125 23.09375 38.1328125 C24.08375 38.1328125 25.07375 38.1328125 26.09375 38.1328125 C26.09375 39.1228125 26.09375 40.1128125 26.09375 41.1328125 C27.08375 41.4628125 28.07375 41.7928125 29.09375 42.1328125 C29.58875 44.6078125 29.58875 44.6078125 30.09375 47.1328125 C30.75375 46.1428125 31.41375 45.1528125 32.09375 44.1328125 C33.08375 44.1328125 34.07375 44.1328125 35.09375 44.1328125 C35.09375 41.1628125 35.09375 38.1928125 35.09375 35.1328125 C36.08375 35.1328125 37.07375 35.1328125 38.09375 35.1328125 C38.09375 32.1628125 38.09375 29.1928125 38.09375 26.1328125 C38.75375 25.8028125 39.41375 25.4728125 40.09375 25.1328125 C40.55898063 23.23747908 40.55898063 23.23747908 40.71875 21.0703125 C40.904375 19.12125 40.904375 19.12125 41.09375 17.1328125 C42.08375 16.8028125 43.07375 16.4728125 44.09375 16.1328125 C44.09375 13.4928125 44.09375 10.8528125 44.09375 8.1328125 C45.08375 7.8028125 46.07375 7.4728125 47.09375 7.1328125 C47.09375 5.1528125 47.09375 3.1728125 47.09375 1.1328125 C49.8047577 -0.22269135 52.00714169 -0.03635957 55.03125 -0.0546875 C56.62259766 -0.07595703 56.62259766 -0.07595703 58.24609375 -0.09765625 C61.09375 0.1328125 61.09375 0.1328125 64.09375 2.1328125 C64.50218923 4.84484902 64.22711867 7.3765267 64.09375 10.1328125 C65.08375 10.4628125 66.07375 10.7928125 67.09375 11.1328125 C67.09375 13.7728125 67.09375 16.4128125 67.09375 19.1328125 C68.57875 19.6278125 68.57875 19.6278125 70.09375 20.1328125 C70.09375 23.1028125 70.09375 26.0728125 70.09375 29.1328125 C71.08375 29.1328125 72.07375 29.1328125 73.09375 29.1328125 C73.09375 32.1028125 73.09375 35.0728125 73.09375 38.1328125 C74.08375 38.1328125 75.07375 38.1328125 76.09375 38.1328125 C76.09375 41.1028125 76.09375 44.0728125 76.09375 47.1328125 C77.08375 47.1328125 78.07375 47.1328125 79.09375 47.1328125 C79.09375 51.7528125 79.09375 56.3728125 79.09375 61.1328125 C69.81640625 61.23046875 69.81640625 61.23046875 67.09375 61.1328125 C66.09375 60.1328125 66.09375 60.1328125 66.03125 57.0703125 C66.051875 56.1009375 66.0725 55.1315625 66.09375 54.1328125 C65.10375 54.1328125 64.11375 54.1328125 63.09375 54.1328125 C63.09375 50.1728125 63.09375 46.2128125 63.09375 42.1328125 C58.14375 42.1328125 53.19375 42.1328125 48.09375 42.1328125 C48.09375 44.1128125 48.09375 46.0928125 48.09375 48.1328125 C47.10375 48.1328125 46.11375 48.1328125 45.09375 48.1328125 C45.09375 51.4328125 45.09375 54.7328125 45.09375 58.1328125 C44.10375 58.1328125 43.11375 58.1328125 42.09375 58.1328125 C42.09375 59.1228125 42.09375 60.1128125 42.09375 61.1328125 C38.63543414 61.16175797 35.17714928 61.1795925 31.71875 61.1953125 C30.73390625 61.20369141 29.7490625 61.21207031 28.734375 61.22070312 C27.32285156 61.22553711 27.32285156 61.22553711 25.8828125 61.23046875 C24.57884521 61.23832397 24.57884521 61.23832397 23.24853516 61.24633789 C21.09375 61.1328125 21.09375 61.1328125 19.09375 60.1328125 C19.09375 58.4828125 19.09375 56.8328125 19.09375 55.1328125 C17.60875 54.6378125 17.60875 54.6378125 16.09375 54.1328125 C13.62822933 50.75413603 13.09375 49.42723048 13.09375 45.1328125 C12.10375 45.1328125 11.11375 45.1328125 10.09375 45.1328125 C10.09375 43.1528125 10.09375 41.1728125 10.09375 39.1328125 C9.10375 39.1328125 8.11375 39.1328125 7.09375 39.1328125 C6.10375 38.1428125 5.11375 37.1528125 4.09375 36.1328125 C4.09375 44.3828125 4.09375 52.6328125 4.09375 61.1328125 C0.13375 61.1328125 -3.82625 61.1328125 -7.90625 61.1328125 C-8.90625 60.1328125 -8.90625 60.1328125 -9.02650452 57.77268982 C-9.02428391 56.72678177 -9.02206329 55.68087372 -9.01977539 54.60327148 C-9.01969986 53.42212265 -9.01962433 52.24097382 -9.01954651 51.02403259 C-9.01438522 49.7386409 -9.00922394 48.45324921 -9.00390625 47.12890625 C-9.0024913 45.82075455 -9.00107635 44.51260284 -8.99961853 43.16481018 C-8.9957941 39.68118391 -8.98596446 36.19759911 -8.97491455 32.71398926 C-8.96469882 29.16154542 -8.96012056 25.60909491 -8.95507812 22.05664062 C-8.94434212 15.08201418 -8.9272666 8.10741533 -8.90625 1.1328125 C-5.9519943 -0.34431535 -3.29364796 0.00291252 0 0 Z M4.09375 11.1328125 C4.09375 15.7528125 4.09375 20.3728125 4.09375 25.1328125 C6.07375 25.1328125 8.05375 25.1328125 10.09375 25.1328125 C10.75375 24.4728125 11.41375 23.8128125 12.09375 23.1328125 C14.21875 22.5078125 14.21875 22.5078125 16.09375 22.1328125 C16.09375 21.4728125 16.09375 20.8128125 16.09375 20.1328125 C17.08375 19.8028125 18.07375 19.4728125 19.09375 19.1328125 C19.09375 17.4828125 19.09375 15.8328125 19.09375 14.1328125 C17.11375 14.1328125 15.13375 14.1328125 13.09375 14.1328125 C13.09375 13.1428125 13.09375 12.1528125 13.09375 11.1328125 C10.12375 11.1328125 7.15375 11.1328125 4.09375 11.1328125 Z M54.09375 23.1328125 C54.09375 25.1128125 54.09375 27.0928125 54.09375 29.1328125 C53.10375 29.1328125 52.11375 29.1328125 51.09375 29.1328125 C51.09375 30.1228125 51.09375 31.1128125 51.09375 32.1328125 C53.07375 32.1328125 55.05375 32.1328125 57.09375 32.1328125 C57.09375 29.1628125 57.09375 26.1928125 57.09375 23.1328125 C56.10375 23.1328125 55.11375 23.1328125 54.09375 23.1328125 Z " fill="#020302" transform="translate(221.90625,379.8671875)"/>
<path d="M0 0 C0.67813248 -0.00191345 1.35626495 -0.0038269 2.0549469 -0.00579834 C3.48984142 -0.00715981 4.92474826 -0.00346599 6.35961914 0.00488281 C8.55448167 0.01556695 10.74852265 0.00499544 12.94335938 -0.0078125 C14.33724139 -0.00649057 15.73112289 -0.00392749 17.125 0 C18.39529053 0.00225586 19.66558105 0.00451172 20.97436523 0.00683594 C24.12890625 0.265625 24.12890625 0.265625 27.12890625 2.265625 C27.12890625 2.925625 27.12890625 3.585625 27.12890625 4.265625 C28.11890625 4.265625 29.10890625 4.265625 30.12890625 4.265625 C30.62390625 5.750625 30.62390625 5.750625 31.12890625 7.265625 C31.78890625 4.955625 32.44890625 2.645625 33.12890625 0.265625 C39.07372737 0.24095297 45.01851885 0.22277837 50.96337891 0.21069336 C52.98682168 0.20565669 55.01026081 0.19882711 57.03369141 0.19018555 C59.93783468 0.17809088 62.84192994 0.17239012 65.74609375 0.16796875 C66.65446991 0.16280746 67.56284607 0.15764618 68.49874878 0.15232849 C69.3394693 0.15225296 70.18018982 0.15217743 71.04638672 0.15209961 C72.15891312 0.14876869 72.15891312 0.14876869 73.29391479 0.14537048 C75.12890625 0.265625 75.12890625 0.265625 77.12890625 1.265625 C77.12890625 4.565625 77.12890625 7.865625 77.12890625 11.265625 C71.84890625 11.265625 66.56890625 11.265625 61.12890625 11.265625 C61.12890625 27.765625 61.12890625 44.265625 61.12890625 61.265625 C56.83890625 61.265625 52.54890625 61.265625 48.12890625 61.265625 C48.12890625 44.765625 48.12890625 28.265625 48.12890625 11.265625 C43.17890625 11.265625 38.22890625 11.265625 33.12890625 11.265625 C33.12890625 16.215625 33.12890625 21.165625 33.12890625 26.265625 C32.13890625 26.265625 31.14890625 26.265625 30.12890625 26.265625 C30.12890625 28.245625 30.12890625 30.225625 30.12890625 32.265625 C27.15890625 32.760625 27.15890625 32.760625 24.12890625 33.265625 C24.12890625 34.915625 24.12890625 36.565625 24.12890625 38.265625 C25.11890625 38.265625 26.10890625 38.265625 27.12890625 38.265625 C27.12890625 40.245625 27.12890625 42.225625 27.12890625 44.265625 C28.11890625 44.265625 29.10890625 44.265625 30.12890625 44.265625 C30.12890625 45.585625 30.12890625 46.905625 30.12890625 48.265625 C31.11890625 48.265625 32.10890625 48.265625 33.12890625 48.265625 C33.12890625 52.555625 33.12890625 56.845625 33.12890625 61.265625 C28.83890625 61.265625 24.54890625 61.265625 20.12890625 61.265625 C20.12890625 59.285625 20.12890625 57.305625 20.12890625 55.265625 C19.13890625 55.265625 18.14890625 55.265625 17.12890625 55.265625 C16.79890625 53.945625 16.46890625 52.625625 16.12890625 51.265625 C15.46890625 51.265625 14.80890625 51.265625 14.12890625 51.265625 C13.79890625 49.285625 13.46890625 47.305625 13.12890625 45.265625 C11.64390625 44.770625 11.64390625 44.770625 10.12890625 44.265625 C10.12890625 42.615625 10.12890625 40.965625 10.12890625 39.265625 C9.13890625 39.265625 8.14890625 39.265625 7.12890625 39.265625 C7.12890625 38.275625 7.12890625 37.285625 7.12890625 36.265625 C6.46890625 36.265625 5.80890625 36.265625 5.12890625 36.265625 C5.13414307 36.98741943 5.13937988 37.70921387 5.14477539 38.45288086 C5.16547983 41.70295349 5.17854543 44.95301228 5.19140625 48.203125 C5.19978516 49.33943359 5.20816406 50.47574219 5.21679688 51.64648438 C5.22001953 52.72607422 5.22324219 53.80566406 5.2265625 54.91796875 C5.23179932 55.91820068 5.23703613 56.91843262 5.24243164 57.94897461 C5.12890625 60.265625 5.12890625 60.265625 4.12890625 61.265625 C2.10926426 61.33806553 0.08723501 61.34939688 -1.93359375 61.328125 C-3.59068359 61.31458984 -3.59068359 61.31458984 -5.28125 61.30078125 C-6.13589844 61.28917969 -6.99054687 61.27757812 -7.87109375 61.265625 C-9.17221507 58.66338236 -9.00527333 56.75190774 -9.01635742 53.83789062 C-9.02273727 52.70331421 -9.02911713 51.56873779 -9.03569031 50.39978027 C-9.03680313 49.16957153 -9.03791595 47.93936279 -9.0390625 46.671875 C-9.0423909 45.41427368 -9.0457193 44.15667236 -9.04914856 42.86096191 C-9.05421887 40.19779936 -9.0569885 37.53473883 -9.05639648 34.87158203 C-9.05629475 31.45493414 -9.06995906 28.03849354 -9.08716869 24.62189484 C-9.1009418 21.36772917 -9.1003768 18.11356589 -9.1015625 14.859375 C-9.10874802 13.62916626 -9.11593353 12.39895752 -9.12333679 11.13146973 C-9.12026016 9.99689331 -9.11718353 8.86231689 -9.11401367 7.69335938 C-9.11543869 6.69123413 -9.11686371 5.68910889 -9.11833191 4.65661621 C-8.54966403 -0.84285805 -4.54885612 0.00808532 0 0 Z M5.12890625 11.265625 C5.12890625 15.885625 5.12890625 20.505625 5.12890625 25.265625 C10.71167008 25.265625 14.66971306 24.24884531 19.06640625 20.703125 C20.3270366 19.29549024 20.3270366 19.29549024 20.12890625 17.265625 C18.15600038 14.91692753 17.12583763 14.26460213 14.12890625 13.265625 C13.79890625 12.605625 13.46890625 11.945625 13.12890625 11.265625 C10.48890625 11.265625 7.84890625 11.265625 5.12890625 11.265625 Z " fill="#010202" transform="translate(548.87109375,379.734375)"/>
<path d="M0 0 C1.12775345 0.00212242 1.12775345 0.00212242 2.27828979 0.00428772 C4.6829626 0.0098916 7.08754277 0.02244468 9.4921875 0.03515625 C11.12109241 0.04017075 12.74999877 0.04473375 14.37890625 0.04882812 C18.37503577 0.05986228 22.37109592 0.07712946 26.3671875 0.09765625 C26.3671875 0.75765625 26.3671875 1.41765625 26.3671875 2.09765625 C26.9364093 1.77233917 27.5056311 1.44702209 28.09210205 1.11184692 C30.54867985 0.01675034 32.09832025 -0.14510179 34.76855469 -0.12939453 C36.05944 -0.12916794 36.05944 -0.12916794 37.37640381 -0.12893677 C38.29633118 -0.1186142 39.21625854 -0.10829163 40.1640625 -0.09765625 C41.11283264 -0.09482635 42.06160278 -0.09199646 43.03912354 -0.08908081 C46.06527389 -0.07789823 49.0911268 -0.05279705 52.1171875 -0.02734375 C54.17056864 -0.01731147 56.22395442 -0.00818605 58.27734375 0 C63.30740604 0.02203484 68.33724636 0.05655163 73.3671875 0.09765625 C74.99370272 3.35068669 74.48171906 6.48991227 74.3671875 10.09765625 C73.3671875 11.09765625 73.3671875 11.09765625 69.98828125 11.1953125 C68.59371673 11.18863994 67.19917007 11.17668157 65.8046875 11.16015625 C65.09376953 11.15564453 64.38285156 11.15113281 63.65039062 11.14648438 C61.88928737 11.13466489 60.12822714 11.11672888 58.3671875 11.09765625 C58.37162872 11.69456268 58.37606995 12.29146912 58.38064575 12.90646362 C58.42479331 19.10281996 58.45501809 25.29913183 58.47705078 31.49560547 C58.48712642 33.81007704 58.50078725 36.12453584 58.51806641 38.43896484 C58.54224615 41.76012318 58.5536548 45.08111365 58.5625 48.40234375 C58.57282257 49.44196259 58.58314514 50.48158142 58.59378052 51.55270386 C58.59393158 52.51354889 58.59408264 53.47439392 58.59423828 54.46435547 C58.5986795 55.31262909 58.60312073 56.16090271 58.60769653 57.03488159 C58.3671875 59.09765625 58.3671875 59.09765625 56.3671875 61.09765625 C53.984375 61.29296875 53.984375 61.29296875 51.2421875 61.22265625 C50.33210937 61.20460938 49.42203125 61.1865625 48.484375 61.16796875 C47.78570313 61.14476562 47.08703125 61.1215625 46.3671875 61.09765625 C45.15831459 58.67991044 45.24659407 57.16434561 45.25366211 54.46435547 C45.25373764 53.50351044 45.25381317 52.54266541 45.25389099 51.55270386 C45.25905228 50.51308502 45.26421356 49.47346619 45.26953125 48.40234375 C45.2709462 47.33976349 45.27236115 46.27718323 45.27381897 45.18240356 C45.27942916 41.77912616 45.29198341 38.37591387 45.3046875 34.97265625 C45.30970119 32.66927178 45.31426432 30.36588628 45.31835938 28.0625 C45.32855223 22.40750664 45.34812571 16.75265458 45.3671875 11.09765625 C31.5071875 11.09765625 17.6471875 11.09765625 3.3671875 11.09765625 C3.3671875 14.72765625 3.3671875 18.35765625 3.3671875 22.09765625 C4.78773438 22.06285156 6.20828125 22.02804687 7.671875 21.9921875 C9.52863405 21.96405479 11.38540583 21.93675408 13.2421875 21.91015625 C14.17933594 21.88501953 15.11648438 21.85988281 16.08203125 21.83398438 C16.97792969 21.82431641 17.87382813 21.81464844 18.796875 21.8046875 C19.62429199 21.78897705 20.45170898 21.7732666 21.30419922 21.75708008 C21.98498535 21.86947021 22.66577148 21.98186035 23.3671875 22.09765625 C25.7966391 25.74183365 25.52898325 27.81006897 25.3671875 32.09765625 C22.96658933 33.29795533 21.47358101 33.21225368 18.796875 33.1953125 C17.90097656 33.19208984 17.00507812 33.18886719 16.08203125 33.18554688 C14.67630859 33.17297852 14.67630859 33.17297852 13.2421875 33.16015625 C11.82486328 33.15338867 11.82486328 33.15338867 10.37890625 33.14648438 C8.0416398 33.13468 5.70440581 33.11674424 3.3671875 33.09765625 C3.3671875 37.71765625 3.3671875 42.33765625 3.3671875 47.09765625 C5.82285156 47.06285156 5.82285156 47.06285156 8.328125 47.02734375 C10.46614129 47.00858922 12.60416249 46.99038868 14.7421875 46.97265625 C15.82242188 46.95589844 16.90265625 46.93914062 18.015625 46.921875 C19.046875 46.91542969 20.078125 46.90898437 21.140625 46.90234375 C22.57027588 46.8866333 22.57027588 46.8866333 24.02880859 46.87060547 C26.3671875 47.09765625 26.3671875 47.09765625 28.3671875 49.09765625 C28.6328125 51.41015625 28.6328125 51.41015625 28.6171875 54.09765625 C28.62492188 55.42796875 28.62492188 55.42796875 28.6328125 56.78515625 C28.3671875 59.09765625 28.3671875 59.09765625 26.3671875 61.09765625 C23.72602637 61.28503274 21.1916477 61.35335491 18.55078125 61.328125 C17.77912125 61.32766678 17.00746124 61.32720856 16.2124176 61.32673645 C14.58080508 61.32371412 12.94919545 61.31582838 11.31762695 61.3034668 C8.8112575 61.28520412 6.30525717 61.28295713 3.79882812 61.28320312 C2.21614262 61.27828823 0.63345963 61.27246004 -0.94921875 61.265625 C-2.08043907 61.26395576 -2.08043907 61.26395576 -3.23451233 61.26225281 C-8.51676131 61.21370744 -8.51676131 61.21370744 -9.6328125 60.09765625 C-9.72662552 58.25647596 -9.75025204 56.41167984 -9.74633789 54.56811523 C-9.74626236 53.3869664 -9.74618683 52.20581757 -9.74610901 50.98887634 C-9.74094772 49.70348465 -9.73578644 48.41809296 -9.73046875 47.09375 C-9.7290538 45.7855983 -9.72763885 44.47744659 -9.72618103 43.12965393 C-9.7223566 39.64602766 -9.71252696 36.16244286 -9.70147705 32.67883301 C-9.69126132 29.12638917 -9.68668306 25.57393866 -9.68164062 22.02148438 C-9.67090462 15.04685793 -9.6538291 8.07225908 -9.6328125 1.09765625 C-6.56686656 -0.43531672 -3.36169397 -0.0236583 0 0 Z " fill="#020202" transform="translate(716.6328125,379.90234375)"/>
<path d="M0 0 C3.63 0 7.26 0 11 0 C11 1.32 11 2.64 11 4 C12.32 4.33 13.64 4.66 15 5 C15 7.64 15 10.28 15 13 C15.99 13.33 16.98 13.66 18 14 C18.12375 14.969375 18.2475 15.93875 18.375 16.9375 C18.58125 17.948125 18.7875 18.95875 19 20 C19.66 20.33 20.32 20.66 21 21 C21 23.64 21 26.28 21 29 C23.93306243 27.29260399 24.9018431 26.26738081 26.08984375 23.03125 C26.36957031 21.8659375 26.64929688 20.700625 26.9375 19.5 C30.99129747 4.00870253 30.99129747 4.00870253 35 0 C36.97712807 -0.09900199 38.95790038 -0.12970773 40.9375 -0.125 C42.55978516 -0.12886719 42.55978516 -0.12886719 44.21484375 -0.1328125 C47 0 47 0 49 1 C49 20.8 49 40.6 49 61 C45.04 61 41.08 61 37 61 C36 60 36 60 35.88647461 57.68334961 C35.89171143 56.68311768 35.89694824 55.68288574 35.90234375 54.65234375 C35.90556641 53.57275391 35.90878906 52.49316406 35.91210938 51.38085938 C35.92467773 49.67639648 35.92467773 49.67639648 35.9375 47.9375 C35.94201172 46.79732422 35.94652344 45.65714844 35.95117188 44.48242188 C35.96300253 41.65489649 35.9794859 38.8274736 36 36 C35.01 36 34.02 36 33 36 C33 37.98 33 39.96 33 42 C32.01 42 31.02 42 30 42 C30 44.97 30 47.94 30 51 C29.01 51 28.02 51 27 51 C27 52.32 27 53.64 27 55 C24.36 55 21.72 55 19 55 C17.5393715 52.35261084 17 51.10551666 17 48 C16.34 48 15.68 48 15 48 C14.67 45.03 14.34 42.06 14 39 C13.34 39 12.68 39 12 39 C11.67 45.27 11.34 51.54 11 58 C10.01 58 9.02 58 8 58 C8 58.99 8 59.98 8 61 C5.36 61 2.72 61 0 61 C-1.30248086 58.39503827 -1.12707873 56.48923447 -1.12939453 53.57226562 C-1.13254669 52.43768921 -1.13569885 51.30311279 -1.13894653 50.13415527 C-1.1369223 48.90394653 -1.13489807 47.67373779 -1.1328125 46.40625 C-1.13376923 45.14864868 -1.13472595 43.89104736 -1.13571167 42.59533691 C-1.13639322 39.93217553 -1.13503992 37.26910542 -1.13037109 34.60595703 C-1.1246739 31.18936749 -1.12795387 27.7728565 -1.13394356 24.35626984 C-1.13842226 21.10209372 -1.13528813 17.84792714 -1.1328125 14.59375 C-1.13483673 13.36354126 -1.13686096 12.13333252 -1.13894653 10.86584473 C-1.13579437 9.73126831 -1.13264221 8.59669189 -1.12939453 7.42773438 C-1.12859894 6.42560913 -1.12780334 5.42348389 -1.12698364 4.39099121 C-1 2 -1 2 0 0 Z " fill="#030403" transform="translate(439,380)"/>
<path d="M0 0 C11 0 11 0 13 1 C13 1.99 13 2.98 13 4 C13.99 4 14.98 4 16 4 C16 5.98 16 7.96 16 10 C16.99 10 17.98 10 19 10 C20.76179424 12.46651193 21.94890988 14.87077204 23.0625 17.6875 C23.88303421 20.1427942 23.88303421 20.1427942 26 22 C26 23.32 26 24.64 26 26 C26.99 26.33 27.98 26.66 29 27 C29 28.65 29 30.3 29 32 C29.66 32 30.32 32 31 32 C31 21.44 31 10.88 31 0 C42 0 42 0 44 1 C44.0462929 8.5276878 44.08185365 16.05536088 44.10362434 23.58315849 C44.11407198 27.07843927 44.12824883 30.57362283 44.15087891 34.06884766 C44.17671953 38.08497056 44.18646466 42.10099097 44.1953125 46.1171875 C44.20563507 47.37554413 44.21595764 48.63390076 44.22659302 49.9303894 C44.22681961 51.67196823 44.22681961 51.67196823 44.22705078 53.44873047 C44.231492 54.47465302 44.23593323 55.50057556 44.24050903 56.55758667 C44 59 44 59 42 61 C39.3984375 61.1953125 39.3984375 61.1953125 36.375 61.125 C35.37210937 61.10695313 34.36921875 61.08890625 33.3359375 61.0703125 C32.17964844 61.03550781 32.17964844 61.03550781 31 61 C31 60.01 31 59.02 31 58 C30.01 58 29.02 58 28 58 C28 56.68 28 55.36 28 54 C27.01 54 26.02 54 25 54 C25 52.02 25 50.04 25 48 C24.01 48 23.02 48 22 48 C22 46.02 22 44.04 22 42 C20.68 41.67 19.36 41.34 18 41 C18 39.35 18 37.7 18 36 C17.01 36 16.02 36 15 36 C14.67 34.02 14.34 32.04 14 30 C13.98541748 30.83249268 13.97083496 31.66498535 13.95581055 32.52270508 C13.8947137 35.61489653 13.82055444 38.70642082 13.73754883 41.7980957 C13.68798681 43.7929063 13.65348867 45.78807257 13.61914062 47.78320312 C13.58369141 49.03681641 13.54824219 50.29042969 13.51171875 51.58203125 C13.48553467 52.73936768 13.45935059 53.8967041 13.43237305 55.08911133 C13 58 13 58 10 61 C6.7 61 3.4 61 0 61 C0 40.87 0 20.74 0 0 Z " fill="#020303" transform="translate(326,380)"/>
<path d="M0 0 C0.68852554 0.00202423 1.37705109 0.00404846 2.08644104 0.00613403 C3.14261375 0.00469894 3.14261375 0.00469894 4.22012329 0.00323486 C5.71226592 0.00255312 7.2044115 0.00440701 8.69654846 0.00857544 C10.98348147 0.01391591 13.27021737 0.00863443 15.55714417 0.00222778 C17.00441022 0.00288872 18.45167616 0.00417021 19.89894104 0.00613403 C20.58544235 0.0041098 21.27194366 0.00208557 21.97924805 0 C26.82918202 0.0239889 26.82918202 0.0239889 29.05909729 1.13894653 C29.05909729 2.12894653 29.05909729 3.11894653 29.05909729 4.13894653 C30.04909729 4.13894653 31.03909729 4.13894653 32.05909729 4.13894653 C32.05909729 5.12894653 32.05909729 6.11894653 32.05909729 7.13894653 C33.04909729 7.13894653 34.03909729 7.13894653 35.05909729 7.13894653 C35.05909729 14.39894653 35.05909729 21.65894653 35.05909729 29.13894653 C34.06909729 29.13894653 33.07909729 29.13894653 32.05909729 29.13894653 C32.05909729 30.45894653 32.05909729 31.77894653 32.05909729 33.13894653 C31.06909729 33.13894653 30.07909729 33.13894653 29.05909729 33.13894653 C29.05909729 35.77894653 29.05909729 38.41894653 29.05909729 41.13894653 C30.04909729 41.46894653 31.03909729 41.79894653 32.05909729 42.13894653 C32.05909729 43.78894653 32.05909729 45.43894653 32.05909729 47.13894653 C33.04909729 47.13894653 34.03909729 47.13894653 35.05909729 47.13894653 C35.18284729 48.27332153 35.30659729 49.40769653 35.43409729 50.57644653 C35.64034729 51.75207153 35.84659729 52.92769653 36.05909729 54.13894653 C37.04909729 54.63394653 37.04909729 54.63394653 38.05909729 55.13894653 C38.10181829 56.80506558 38.09973561 58.47277538 38.05909729 60.13894653 C36.25637947 61.94166436 33.6150098 61.35396937 31.18409729 61.38894653 C29.57921448 61.42761841 29.57921448 61.42761841 27.94190979 61.46707153 C25.05909729 61.13894653 25.05909729 61.13894653 23.23878479 59.81082153 C22.05909729 58.13894653 22.05909729 58.13894653 21.05909729 55.13894653 C20.39909729 54.80894653 19.73909729 54.47894653 19.05909729 54.13894653 C19.05909729 52.15894653 19.05909729 50.17894653 19.05909729 48.13894653 C18.06909729 48.13894653 17.07909729 48.13894653 16.05909729 48.13894653 C16.05909729 46.15894653 16.05909729 44.17894653 16.05909729 42.13894653 C15.06909729 42.13894653 14.07909729 42.13894653 13.05909729 42.13894653 C13.05909729 40.81894653 13.05909729 39.49894653 13.05909729 38.13894653 C11.07909729 37.47894653 9.09909729 36.81894653 7.05909729 36.13894653 C7.05909729 44.38894653 7.05909729 52.63894653 7.05909729 61.13894653 C2.76909729 61.13894653 -1.52090271 61.13894653 -5.94090271 61.13894653 C-5.96345768 53.33319066 -5.98182009 45.52745247 -5.99271488 37.72167301 C-5.99794273 34.09748694 -6.00503858 30.47332423 -6.01634216 26.84915161 C-6.02717455 23.35434679 -6.03318029 19.8595645 -6.03577995 16.36474419 C-6.03853822 14.37655264 -6.04634959 12.38837022 -6.05419922 10.40019226 C-6.05427475 9.19902267 -6.05435028 7.99785309 -6.0544281 6.76028442 C-6.05664871 5.69661148 -6.05886932 4.63293854 -6.06115723 3.53703308 C-5.84415767 -0.79031975 -3.83320125 0.01905415 0 0 Z M7.05909729 11.13894653 C7.05909729 15.75894653 7.05909729 20.37894653 7.05909729 25.13894653 C12.82797221 25.69364673 12.82797221 25.69364673 16.05909729 23.13894653 C18.04879679 22.74880938 20.04929598 22.40692004 22.05909729 22.13894653 C22.05909729 19.49894653 22.05909729 16.85894653 22.05909729 14.13894653 C20.07909729 14.13894653 18.09909729 14.13894653 16.05909729 14.13894653 C16.05909729 13.14894653 16.05909729 12.15894653 16.05909729 11.13894653 C13.08909729 11.13894653 10.11909729 11.13894653 7.05909729 11.13894653 Z " fill="#010202" transform="translate(889.9409027099609,379.8610534667969)"/>
<path d="M0 0 C0.99 0.66 1.98 1.32 3 2 C3.94875 2.309375 4.8975 2.61875 5.875 2.9375 C8.91850358 3.97229122 11.30192999 5.27623305 14 7 C14.66 7.33 15.32 7.66 16 8 C16 10.31 16 12.62 16 15 C15.34 15 14.68 15 14 15 C13.67 15.99 13.34 16.98 13 18 C12.34 18 11.68 18 11 18 C11 18.66 11 19.32 11 20 C9.35 20 7.7 20 6 20 C6 19.01 6 18.02 6 17 C5.01 17 4.02 17 3 17 C3 16.01 3 15.02 3 14 C-0.96 14 -4.92 14 -9 14 C-9 14.99 -9 15.98 -9 17 C-9.99 17 -10.98 17 -12 17 C-12 17.99 -12 18.98 -12 20 C-12.99 20 -13.98 20 -15 20 C-14.98839844 20.59167969 -14.97679687 21.18335938 -14.96484375 21.79296875 C-14.95582031 22.58316406 -14.94679688 23.37335938 -14.9375 24.1875 C-14.92589844 24.96480469 -14.91429687 25.74210937 -14.90234375 26.54296875 C-15 29 -15 29 -15.5546875 31.47265625 C-16.06062362 34.34406561 -15.77946163 36.40517722 -15.1875 39.25 C-15.01605469 40.12140625 -14.84460938 40.9928125 -14.66796875 41.890625 C-14.44753906 42.58671875 -14.22710938 43.2828125 -14 44 C-13.34 44.33 -12.68 44.66 -12 45 C-12 45.66 -12 46.32 -12 47 C-10.515 47.495 -10.515 47.495 -9 48 C-9 48.66 -9 49.32 -9 50 C-5.04 50 -1.08 50 3 50 C3 46.37 3 42.74 3 39 C-0.3 39 -3.6 39 -7 39 C-7 36.03 -7 33.06 -7 30 C-2.49624589 27.74812295 -2.49624589 27.74812295 1.0390625 27.76953125 C1.78414062 27.77146484 2.52921875 27.77339844 3.296875 27.77539062 C4.06515625 27.78763672 4.8334375 27.79988281 5.625 27.8125 C6.40101563 27.81314453 7.17703125 27.81378906 7.9765625 27.81445312 C13.71862599 27.859313 13.71862599 27.859313 16 29 C16 38.24 16 47.48 16 57 C15.01 57.33 14.02 57.66 13 58 C12.67 58.99 12.34 59.98 12 61 C11.01 61.33 10.02 61.66 9 62 C8.505 62.99 8.505 62.99 8 64 C1.07 64 -5.86 64 -13 64 C-13 63.01 -13 62.02 -13 61 C-14.98 61 -16.96 61 -19 61 C-19 60.01 -19 59.02 -19 58 C-19.99 58 -20.98 58 -22 58 C-22 56.68 -22 55.36 -22 54 C-22.99 54 -23.98 54 -25 54 C-25 53.01 -25 52.02 -25 51 C-26.32 50.67 -27.64 50.34 -29 50 C-29 47.36 -29 44.72 -29 42 C-29.99 41.67 -30.98 41.34 -32 41 C-32 35.39 -32 29.78 -32 24 C-31.34 23.67 -30.68 23.34 -30 23 C-29.31068656 20.65092125 -29.31068656 20.65092125 -28.875 17.9375 C-28.70742188 17.01839844 -28.53984375 16.09929687 -28.3671875 15.15234375 C-28.24601563 14.44207031 -28.12484375 13.73179687 -28 13 C-27.01 13 -26.02 13 -25 13 C-25 12.01 -25 11.02 -25 10 C-24.01 10 -23.02 10 -22 10 C-22 9.01 -22 8.02 -22 7 C-21.01 7 -20.02 7 -19 7 C-19 6.01 -19 5.02 -19 4 C-17.84371094 3.69255859 -17.84371094 3.69255859 -16.6640625 3.37890625 C-15.66117188 3.10949219 -14.65828125 2.84007812 -13.625 2.5625 C-12.62726562 2.29566406 -11.62953125 2.02882813 -10.6015625 1.75390625 C-3.75573985 -0.22994326 -3.75573985 -0.22994326 0 0 Z " fill="#010202" transform="translate(685,377)"/>
<path d="M0 0 C9.9 0 19.8 0 30 0 C30 0.66 30 1.32 30 2 C30.66 2 31.32 2 32 2 C32 2.66 32 3.32 32 4 C32.61875 4.12375 33.2375 4.2475 33.875 4.375 C36 5 36 5 38 7 C38 7.99 38 8.98 38 10 C38.99 10 39.98 10 41 10 C41 11.65 41 13.3 41 15 C41.99 15.33 42.98 15.66 44 16 C44.02891546 20.45831982 44.04676981 24.91661569 44.0625 29.375 C44.07087891 30.64601563 44.07925781 31.91703125 44.08789062 33.2265625 C44.09111328 34.43828125 44.09433594 35.65 44.09765625 36.8984375 C44.10289307 38.01911621 44.10812988 39.13979492 44.11352539 40.29443359 C44 43 44 43 43 45 C42.34 45 41.68 45 41 45 C40.9071875 46.36125 40.9071875 46.36125 40.8125 47.75 C39.80517809 51.77928762 38.47994048 52.84575113 35 55 C34.01 55 33.02 55 32 55 C32 55.66 32 56.32 32 57 C28.78548731 58.60725635 25.56387464 58.05748185 22 58 C21.67 58.99 21.34 59.98 21 61 C14.07 61 7.14 61 0 61 C0 40.87 0 20.74 0 0 Z M13 11 C13 22.88 13 34.76 13 47 C14.98 47 16.96 47 19 47 C19 46.34 19 45.68 19 45 C21.97 44.505 21.97 44.505 25 44 C25 43.01 25 42.02 25 41 C25.99 41 26.98 41 28 41 C28 40.01 28 39.02 28 38 C28.99 38 29.98 38 31 38 C31 32.06 31 26.12 31 20 C30.01 20 29.02 20 28 20 C28 19.01 28 18.02 28 17 C27.01 17 26.02 17 25 17 C25 16.01 25 15.02 25 14 C24.195625 13.87625 23.39125 13.7525 22.5625 13.625 C21.716875 13.41875 20.87125 13.2125 20 13 C19.67 12.34 19.34 11.68 19 11 C17.02 11 15.04 11 13 11 Z " fill="#020303" transform="translate(975,380)"/>
<path d="M0 0 C3.63 0 7.26 0 11 0 C11 7.26 11 14.52 11 22 C16.94 22 22.88 22 29 22 C28.96519531 20.57945312 28.93039062 19.15890625 28.89453125 17.6953125 C28.86639854 15.83855345 28.83909783 13.98178167 28.8125 12.125 C28.78736328 11.18785156 28.76222656 10.25070312 28.73632812 9.28515625 C28.72666016 8.38925781 28.71699219 7.49335938 28.70703125 6.5703125 C28.6913208 5.74289551 28.67561035 4.91547852 28.65942383 4.06298828 C28.77181396 3.38220215 28.8842041 2.70141602 29 2 C32 0 32 0 42 0 C42 20.13 42 40.26 42 61 C32 61 32 61 29 59 C28.65942383 56.38623047 28.65942383 56.38623047 28.70703125 53.1171875 C28.71669922 51.95058594 28.72636719 50.78398437 28.73632812 49.58203125 C28.76146484 48.35871094 28.78660156 47.13539063 28.8125 45.875 C28.83280273 44.02841797 28.83280273 44.02841797 28.85351562 42.14453125 C28.8889617 39.09616918 28.94276993 36.04803091 29 33 C23.06 33 17.12 33 11 33 C11 42.24 11 51.48 11 61 C7.04 61 3.08 61 -1 61 C-2.30112132 58.39775736 -2.13417958 56.48628274 -2.14526367 53.57226562 C-2.15164352 52.43768921 -2.15802338 51.30311279 -2.16459656 50.13415527 C-2.16570938 48.90394653 -2.1668222 47.67373779 -2.16796875 46.40625 C-2.17129715 45.14864868 -2.17462555 43.89104736 -2.17805481 42.59533691 C-2.18312512 39.93217436 -2.18589475 37.26911383 -2.18530273 34.60595703 C-2.185201 31.18930914 -2.19886531 27.77286854 -2.21607494 24.35626984 C-2.22984805 21.10210417 -2.22928305 17.84794089 -2.23046875 14.59375 C-2.23765427 13.36354126 -2.24483978 12.13333252 -2.25224304 10.86584473 C-2.24916641 9.73126831 -2.24608978 8.59669189 -2.24291992 7.42773438 C-2.24434494 6.42560913 -2.24576996 5.42348389 -2.24723816 4.39099121 C-2 2 -2 2 0 0 Z " fill="#020303" transform="translate(811,380)"/>
<path d="M0 0 C0.66 0.66 1.32 1.32 2 2 C4.65537372 2.56520003 7.29144713 2.73788198 10 3 C10 3.66 10 4.32 10 5 C10.66 5 11.32 5 12 5 C12 5.66 12 6.32 12 7 C12.99 7 13.98 7 15 7 C15.4726477 15.19256018 15.4726477 15.19256018 13.5 18.5625 C13.005 19.036875 12.51 19.51125 12 20 C10.68 19.67 9.36 19.34 8 19 C8 18.34 8 17.68 8 17 C6.02 17 4.04 17 2 17 C2 16.01 2 15.02 2 14 C0.02 14 -1.96 14 -4 14 C-4.33 14.99 -4.66 15.98 -5 17 C-5.66 17 -6.32 17 -7 17 C-7 18.65 -7 20.3 -7 22 C-6.29875 22.12375 -5.5975 22.2475 -4.875 22.375 C-1.80364682 23.04268547 1.0674358 23.86696383 4 25 C4.33 25.66 4.66 26.32 5 27 C6.65697379 27.69040574 8.3255761 28.3530635 10 29 C14.12969975 31.06484988 16.05404324 32.79584126 18 37 C18.35146819 39.94966794 18.28442858 42.84747952 18.1875 45.8125 C18.16719727 46.99489258 18.16719727 46.99489258 18.14648438 48.20117188 C18.11133456 50.13441169 18.05753361 52.06729682 18 54 C17.01 54 16.02 54 15 54 C15 54.99 15 55.98 15 57 C12.40311527 59.59688473 10.89340735 60.92058601 7.1875 61.25 C6.465625 61.1675 5.74375 61.085 5 61 C4.67 61.99 4.34 62.98 4 64 C1.37493198 64.02690844 -1.24986173 64.04679404 -3.875 64.0625 C-4.62136719 64.07087891 -5.36773437 64.07925781 -6.13671875 64.08789062 C-11.7734375 64.11328125 -11.7734375 64.11328125 -14 63 C-14 62.34 -14 61.68 -14 61 C-15.98 61 -17.96 61 -20 61 C-20 60.01 -20 59.02 -20 58 C-21.32 57.67 -22.64 57.34 -24 57 C-24 54.03 -24 51.06 -24 48 C-22.02 47.505 -22.02 47.505 -20 47 C-20 46.01 -20 45.02 -20 44 C-17.8125 43.6875 -17.8125 43.6875 -15 44 C-14.319375 44.804375 -13.63875 45.60875 -12.9375 46.4375 C-8.4856561 50.3210234 -3.73200748 49.89943847 2 50 C2 49.01 2 48.02 2 47 C2.99 47 3.98 47 5 47 C5 45.35 5 43.7 5 42 C3.02 42 1.04 42 -1 42 C-1.33 41.01 -1.66 40.02 -2 39 C-3.98 39 -5.96 39 -8 39 C-8 38.01 -8 37.02 -8 36 C-9.98 36 -11.96 36 -14 36 C-14 35.01 -14 34.02 -14 33 C-15.98 32.67 -17.96 32.34 -20 32 C-20 30.02 -20 28.04 -20 26 C-20.99 26 -21.98 26 -23 26 C-24.49084832 21.52745503 -24.49084832 17.47254497 -23 13 C-22.01 13 -21.02 13 -20 13 C-20 11.02 -20 9.04 -20 7 C-19.01 7 -18.02 7 -17 7 C-17 6.01 -17 5.02 -17 4 C-15.02 3.67 -13.04 3.34 -11 3 C-11 2.34 -11 1.68 -11 1 C-7.31620978 -0.17881287 -3.84458427 -0.21358801 0 0 Z " fill="#010202" transform="translate(415,377)"/>
<path d="M0 0 C0.96808594 -0.00257813 1.93617188 -0.00515625 2.93359375 -0.0078125 C5.5625 0.125 5.5625 0.125 8.5625 1.125 C9.0575 5.58 9.0575 5.58 9.5625 10.125 C10.5525 10.455 11.5425 10.785 12.5625 11.125 C12.5625 13.765 12.5625 16.405 12.5625 19.125 C13.5525 19.455 14.5425 19.785 15.5625 20.125 C15.5625 23.095 15.5625 26.065 15.5625 29.125 C16.5525 29.125 17.5425 29.125 18.5625 29.125 C18.5625 32.095 18.5625 35.065 18.5625 38.125 C19.5525 38.125 20.5425 38.125 21.5625 38.125 C21.5625 41.095 21.5625 44.065 21.5625 47.125 C22.5525 47.455 23.5425 47.785 24.5625 48.125 C24.5625 52.415 24.5625 56.705 24.5625 61.125 C15.28515625 61.22265625 15.28515625 61.22265625 12.5625 61.125 C11.5625 60.125 11.5625 60.125 11.5 57.0625 C11.520625 56.093125 11.54125 55.12375 11.5625 54.125 C10.5725 54.125 9.5825 54.125 8.5625 54.125 C8.50191406 53.51011719 8.44132813 52.89523437 8.37890625 52.26171875 C8.29511719 51.45347656 8.21132813 50.64523437 8.125 49.8125 C8.04378906 49.01199219 7.96257813 48.21148437 7.87890625 47.38671875 C7.60984307 44.96412821 7.60984307 44.96412821 6.5625 42.125 C2.2725 42.125 -2.0175 42.125 -6.4375 42.125 C-6.4375 44.105 -6.4375 46.085 -6.4375 48.125 C-7.4275 48.125 -8.4175 48.125 -9.4375 48.125 C-9.4375 51.095 -9.4375 54.065 -9.4375 57.125 C-10.9225 57.62 -10.9225 57.62 -12.4375 58.125 C-12.7675 59.115 -13.0975 60.105 -13.4375 61.125 C-17.0675 61.125 -20.6975 61.125 -24.4375 61.125 C-24.6181526 55.25379053 -24.31195665 50.74836996 -22.4375 45.125 C-21.89147861 43.31380711 -21.34999889 41.50124033 -20.8125 39.6875 C-20.35462214 38.16652948 -19.89644807 36.64564794 -19.4375 35.125 C-18.7775 35.125 -18.1175 35.125 -17.4375 35.125 C-17.38851563 34.48691406 -17.33953125 33.84882813 -17.2890625 33.19140625 C-17.17691406 31.95197266 -17.17691406 31.95197266 -17.0625 30.6875 C-16.99289062 29.86378906 -16.92328125 29.04007812 -16.8515625 28.19140625 C-16.64660156 27.16853516 -16.64660156 27.16853516 -16.4375 26.125 C-15.7775 25.795 -15.1175 25.465 -14.4375 25.125 C-13.97226937 23.22966658 -13.97226937 23.22966658 -13.8125 21.0625 C-13.68875 19.763125 -13.565 18.46375 -13.4375 17.125 C-12.4475 16.795 -11.4575 16.465 -10.4375 16.125 C-10.4375 13.485 -10.4375 10.845 -10.4375 8.125 C-9.4475 7.795 -8.4575 7.465 -7.4375 7.125 C-7.4375 5.145 -7.4375 3.165 -7.4375 1.125 C-4.84233479 -0.17258261 -2.89566973 -0.00769102 0 0 Z M-0.4375 23.125 C-0.4375 24.115 -0.4375 25.105 -0.4375 26.125 C-1.4275 26.125 -2.4175 26.125 -3.4375 26.125 C-3.4375 28.105 -3.4375 30.085 -3.4375 32.125 C-1.4575 32.125 0.5225 32.125 2.5625 32.125 C2.2325 29.155 1.9025 26.185 1.5625 23.125 C0.9025 23.125 0.2425 23.125 -0.4375 23.125 Z " fill="#020302" transform="translate(513.4375,379.875)"/>
<path d="M0 0 C0.74709229 -0.00095673 1.49418457 -0.00191345 2.26391602 -0.00289917 C3.84423914 -0.00357999 5.42456506 -0.00173253 7.00488281 0.00244141 C9.4277981 0.00779108 11.850528 0.00249315 14.2734375 -0.00390625 C15.80729208 -0.00324545 17.34114654 -0.00196425 18.875 0 C19.60211182 -0.00202423 20.32922363 -0.00404846 21.07836914 -0.00613403 C26.20757639 0.0178507 26.20757639 0.0178507 28.4375 1.1328125 C28.4375 4.4328125 28.4375 7.7328125 28.4375 11.1328125 C20.1875 11.1328125 11.9375 11.1328125 3.4375 11.1328125 C3.4375 14.7628125 3.4375 18.3928125 3.4375 22.1328125 C4.85804688 22.12121094 6.27859375 22.10960937 7.7421875 22.09765625 C9.59895702 22.08827863 11.45572796 22.0791784 13.3125 22.0703125 C14.24964844 22.06193359 15.18679688 22.05355469 16.15234375 22.04492188 C17.49619141 22.04008789 17.49619141 22.04008789 18.8671875 22.03515625 C20.10831299 22.02730103 20.10831299 22.02730103 21.37451172 22.01928711 C23.4375 22.1328125 23.4375 22.1328125 25.4375 23.1328125 C25.46439216 24.61188142 25.48384621 26.09108733 25.5 27.5703125 C25.51160156 28.39402344 25.52320313 29.21773438 25.53515625 30.06640625 C25.4375 32.1328125 25.4375 32.1328125 24.4375 33.1328125 C22.87577255 33.21966853 21.31020656 33.23983469 19.74609375 33.23046875 C18.80185547 33.22724609 17.85761719 33.22402344 16.88476562 33.22070312 C15.89154297 33.21232422 14.89832031 33.20394531 13.875 33.1953125 C12.87791016 33.19080078 11.88082031 33.18628906 10.85351562 33.18164062 C8.38148513 33.16981273 5.90948528 33.15187665 3.4375 33.1328125 C3.4375 37.7528125 3.4375 42.3728125 3.4375 47.1328125 C6.01884766 47.11541016 6.01884766 47.11541016 8.65234375 47.09765625 C10.89322809 47.08828016 13.13411359 47.07917977 15.375 47.0703125 C16.51130859 47.06193359 17.64761719 47.05355469 18.81835938 47.04492188 C19.89794922 47.04169922 20.97753906 47.03847656 22.08984375 47.03515625 C23.59019165 47.02730103 23.59019165 47.02730103 25.12084961 47.01928711 C27.4375 47.1328125 27.4375 47.1328125 28.4375 48.1328125 C28.51008946 50.31920703 28.52123783 52.50781639 28.5 54.6953125 C28.49097656 55.89285156 28.48195313 57.09039062 28.47265625 58.32421875 C28.46105469 59.25105469 28.44945312 60.17789063 28.4375 61.1328125 C23.18644558 61.15746178 17.93542455 61.17564818 12.68432617 61.18774414 C10.89655979 61.19278468 9.10879755 61.19961704 7.32104492 61.20825195 C4.75698832 61.2203298 2.19298603 61.22604344 -0.37109375 61.23046875 C-1.57734657 61.23821068 -1.57734657 61.23821068 -2.80796814 61.24610901 C-4.72651715 61.24630465 -6.64495368 61.19483233 -8.5625 61.1328125 C-9.5625 60.1328125 -9.5625 60.1328125 -9.68275452 57.77268982 C-9.68053391 56.72678177 -9.67831329 55.68087372 -9.67602539 54.60327148 C-9.67594986 53.42212265 -9.67587433 52.24097382 -9.67579651 51.02403259 C-9.67063522 49.7386409 -9.66547394 48.45324921 -9.66015625 47.12890625 C-9.6587413 45.82075455 -9.65732635 44.51260284 -9.65586853 43.16481018 C-9.6520441 39.68118391 -9.64221446 36.19759911 -9.63116455 32.71398926 C-9.62094882 29.16154542 -9.61637056 25.60909491 -9.61132812 22.05664062 C-9.60059212 15.08201418 -9.5835166 8.10741533 -9.5625 1.1328125 C-6.51553929 -0.39066785 -3.34169939 -0.00930307 0 0 Z " fill="#020202" transform="translate(940.5625,379.8671875)"/>
<path d="M0 0 C0.8510582 -0.00953201 1.70211639 -0.01906403 2.57896423 -0.02888489 C3.9602224 -0.02751778 3.9602224 -0.02751778 5.36938477 -0.02612305 C6.31386978 -0.03040817 7.2583548 -0.0346933 8.23146057 -0.03910828 C10.23128456 -0.04485766 12.23112947 -0.04534738 14.23095703 -0.04101562 C17.29504005 -0.03785803 20.35815577 -0.06129905 23.42211914 -0.08666992 C25.36287313 -0.08894304 27.30362972 -0.08964635 29.24438477 -0.08862305 C30.62260658 -0.10243767 30.62260658 -0.10243767 32.02867126 -0.11653137 C32.88288162 -0.11030258 33.73709198 -0.10407379 34.6171875 -0.09765625 C35.36838364 -0.09828568 36.11957977 -0.0989151 36.89353943 -0.0995636 C39.45716527 0.38502482 40.34085462 1.18587039 41.87329102 3.2746582 C42.12329102 6.8996582 42.12329102 6.8996582 41.87329102 10.2746582 C40.87329102 11.2746582 40.87329102 11.2746582 39.10742188 11.38818359 C38.35855713 11.38294678 37.60969238 11.37770996 36.83813477 11.37231445 C36.02924805 11.3690918 35.22036133 11.36586914 34.38696289 11.36254883 C33.53682617 11.35416992 32.68668945 11.34579102 31.81079102 11.3371582 C30.95678711 11.33264648 30.1027832 11.32813477 29.22290039 11.32348633 C27.10633438 11.31166194 24.98980417 11.29372589 22.87329102 11.2746582 C22.8880397 11.82731857 22.90278839 12.37997894 22.91798401 12.9493866 C23.070562 18.70812435 23.21528273 24.46702175 23.35546875 30.22607422 C23.408796 32.37456258 23.46411786 34.52300241 23.52148438 36.67138672 C23.60365439 39.7616937 23.67861976 42.85210492 23.75219727 45.94262695 C23.77923233 46.90114059 23.8062674 47.85965424 23.8341217 48.84721375 C23.85421799 49.74776993 23.87431427 50.64832611 23.89501953 51.57617188 C23.91500504 52.36448898 23.93499054 53.15280609 23.95558167 53.9650116 C23.86559581 56.49063918 23.4296219 58.81305706 22.87329102 61.2746582 C21.24838148 61.3016401 19.62334468 61.32104577 17.99829102 61.3371582 C17.09336914 61.34875977 16.18844727 61.36036133 15.25610352 61.37231445 C12.87329102 61.2746582 12.87329102 61.2746582 10.87329102 60.2746582 C8.14120876 55.53517282 8.61961065 50.45750666 8.67797852 45.16137695 C8.68080841 44.19182571 8.68363831 43.22227448 8.68655396 42.2233429 C8.69772111 39.13615415 8.72281949 36.04925881 8.74829102 32.9621582 C8.75832529 30.86515719 8.76745036 28.76815162 8.77563477 26.67114258 C8.79764913 21.5388686 8.8321553 16.4068131 8.87329102 11.2746582 C7.87426758 11.28625977 6.87524414 11.29786133 5.84594727 11.30981445 C4.5555957 11.31883789 3.26524414 11.32786133 1.93579102 11.3371582 C0.64801758 11.34875977 -0.63975586 11.36036133 -1.96655273 11.37231445 C-5.12670898 11.2746582 -5.12670898 11.2746582 -6.12670898 10.2746582 C-6.39985713 4.53854709 -6.39985713 4.53854709 -6.12670898 2.2746582 C-3.74403542 -0.10801536 -3.24157469 0.01990297 0 0 Z " fill="#010202" transform="translate(169.126708984375,379.725341796875)"/>
<path d="M0 0 C1.3096875 -0.01224609 2.619375 -0.02449219 3.96875 -0.03710938 C5.84046875 -0.04000977 5.84046875 -0.04000977 7.75 -0.04296875 C8.89984375 -0.04707764 10.0496875 -0.05118652 11.234375 -0.05541992 C14 0.1875 14 0.1875 16 2.1875 C16.25878906 5.3203125 16.25878906 5.3203125 16.265625 9.3125 C16.26849518 10.36655029 16.26849518 10.36655029 16.27142334 11.44189453 C16.27278475 12.92806354 16.26909132 14.41424445 16.26074219 15.90039062 C16.25004154 18.17865646 16.26063839 20.45613377 16.2734375 22.734375 C16.2721159 24.17708508 16.26955349 25.61979466 16.265625 27.0625 C16.26336914 28.37992188 16.26111328 29.69734375 16.25878906 31.0546875 C16 34.1875 16 34.1875 14 36.1875 C11.34204102 36.43041992 11.34204102 36.43041992 8.00390625 36.41796875 C6.80572266 36.41603516 5.60753906 36.41410156 4.37304688 36.41210938 C3.11556641 36.39986328 1.85808594 36.38761719 0.5625 36.375 C-0.69111328 36.37435547 -1.94472656 36.37371094 -3.23632812 36.37304688 C-12.57890455 36.32786515 -12.57890455 36.32786515 -16 35.1875 C-16 23.9675 -16 12.7475 -16 1.1875 C-11.42337784 -1.10081108 -5.02502708 0.00247295 0 0 Z " fill="#020202" transform="translate(1019,25.8125)"/>
<path d="M0 0 C0 20.13 0 40.26 0 61 C-11 61 -11 61 -13 60 C-13 40.53 -13 21.06 -13 1 C-11 0 -11 0 0 0 Z " fill="#020303" transform="translate(875,380)"/>
<path d="M0 0 C0.89847656 0.00257813 1.79695313 0.00515625 2.72265625 0.0078125 C3.61855469 0.00523437 4.51445312 0.00265625 5.4375 0 C7.78515625 0.1328125 7.78515625 0.1328125 9.78515625 1.1328125 C9.80828446 8.80817877 9.82607378 16.48354146 9.83696842 24.15893459 C9.8421962 27.72258672 9.84929194 31.28621507 9.8605957 34.84985352 C9.87349801 38.94287347 9.87838531 43.0358683 9.8828125 47.12890625 C9.88797379 48.41429794 9.89313507 49.69968964 9.89845276 51.02403259 C9.89852829 52.20518143 9.89860382 53.38633026 9.89868164 54.60327148 C9.90090225 55.64917953 9.90312286 56.69508759 9.90541077 57.77268982 C9.78515625 60.1328125 9.78515625 60.1328125 8.78515625 61.1328125 C6.76551426 61.20525303 4.74348501 61.21658438 2.72265625 61.1953125 C1.61792969 61.18628906 0.51320313 61.17726563 -0.625 61.16796875 C-1.90697266 61.15056641 -1.90697266 61.15056641 -3.21484375 61.1328125 C-3.23797167 53.32706055 -3.25576113 45.52131655 -3.26665592 37.71553898 C-3.27188377 34.0913529 -3.27897962 30.4671902 -3.2902832 26.84301758 C-3.30111559 23.34821275 -3.30712133 19.85343046 -3.30972099 16.35861015 C-3.31247926 14.37041861 -3.32029063 12.38223619 -3.32814026 10.39405823 C-3.32821579 9.19288864 -3.32829132 7.99171906 -3.32836914 6.75415039 C-3.33058975 5.69047745 -3.33281036 4.6268045 -3.33509827 3.53089905 C-3.17879569 0.4139507 -3.10560828 0.18622695 0 0 Z " fill="#020303" transform="translate(307.21484375,379.8671875)"/>
<path d="M0 0 C1.60488281 -0.02126953 1.60488281 -0.02126953 3.2421875 -0.04296875 C6.125 0.1875 6.125 0.1875 9.125 2.1875 C9.41796875 5.0078125 9.41796875 5.0078125 9.3125 8.3125 C9.28542969 9.40820312 9.25835938 10.50390625 9.23046875 11.6328125 C9.19566406 12.47585938 9.16085937 13.31890625 9.125 14.1875 C8.135 14.1875 7.145 14.1875 6.125 14.1875 C6.125 15.1775 6.125 16.1675 6.125 17.1875 C2.825 17.1875 -0.475 17.1875 -3.875 17.1875 C-3.875 16.1975 -3.875 15.2075 -3.875 14.1875 C-4.865 14.1875 -5.855 14.1875 -6.875 14.1875 C-6.90185938 12.04173363 -6.92133088 9.89587355 -6.9375 7.75 C-6.94910156 6.55503906 -6.96070313 5.36007812 -6.97265625 4.12890625 C-6.80275016 -0.98866512 -4.57776079 0.02744461 0 0 Z " fill="#000100" transform="translate(625.875,423.8125)"/>
<path d="M0 0 C1.79133978 -0.05391993 3.58313899 -0.09275571 5.375 -0.125 C6.37273437 -0.14820313 7.37046875 -0.17140625 8.3984375 -0.1953125 C11 0 11 0 13 2 C13.1953125 4.6015625 13.1953125 4.6015625 13.125 7.625 C13.10695313 8.62789063 13.08890625 9.63078125 13.0703125 10.6640625 C13.04710937 11.43492187 13.02390625 12.20578125 13 13 C12.01 13.33 11.02 13.66 10 14 C9.67 14.99 9.34 15.98 9 17 C6.03 17 3.06 17 0 17 C0 16.01 0 15.02 0 14 C-0.99 14 -1.98 14 -3 14 C-3 10.37 -3 6.74 -3 3 C-2.01 3 -1.02 3 0 3 C0 2.01 0 1.02 0 0 Z " fill="#000101" transform="translate(1025,424)"/>
</svg>
